<svg xmlns="http://www.w3.org/2000/svg" xmlns:xlink="http://www.w3.org/1999/xlink" width="40" zoomAndPan="magnify" viewBox="0 0 30 30.000001" height="40" preserveAspectRatio="xMidYMid meet" version="1.0"><defs><g/><clipPath id="0ea4f9bf75"><path d="M 0.484375 0 L 29.515625 0 L 29.515625 29.03125 L 0.484375 29.03125 Z M 0.484375 0 " clip-rule="nonzero"/></clipPath><clipPath id="8be06eddcd"><path d="M 6 2 L 24 2 L 24 20.578125 L 6 20.578125 Z M 6 2 " clip-rule="nonzero"/></clipPath><clipPath id="e7e8840e6d"><path d="M 19.914062 22.527344 L 24.269531 22.527344 L 24.269531 26.882812 L 19.914062 26.882812 Z M 19.914062 22.527344 " clip-rule="nonzero"/></clipPath><clipPath id="b78cfa0c7b"><path d="M 10.390625 22.902344 L 15.46875 22.902344 L 15.46875 27.257812 L 10.390625 27.257812 Z M 10.390625 22.902344 " clip-rule="nonzero"/></clipPath><clipPath id="e3d19d9530"><path d="M 15.699219 22.527344 L 19.328125 22.527344 L 19.328125 26.882812 L 15.699219 26.882812 Z M 15.699219 22.527344 " clip-rule="nonzero"/></clipPath><clipPath id="f4bf3939ce"><path d="M 5.992188 22.902344 L 10.347656 22.902344 L 10.347656 27.257812 L 5.992188 27.257812 Z M 5.992188 22.902344 " clip-rule="nonzero"/></clipPath></defs><g clip-path="url(#0ea4f9bf75)"><path fill="#ffffff" d="M 0.484375 0 L 29.515625 0 L 29.515625 29.03125 L 0.484375 29.03125 Z M 0.484375 0 " fill-opacity="1" fill-rule="nonzero"/><path fill="#00bf63" d="M 0.484375 0 L 29.515625 0 L 29.515625 29.03125 L 0.484375 29.03125 Z M 0.484375 0 " fill-opacity="1" fill-rule="nonzero"/></g><g clip-path="url(#8be06eddcd)"><path fill="#ffffff" d="M 15.257812 20.5 L 6.007812 20.5 L 6.007812 9.253906 L 14.613281 9.253906 C 14.878906 9.253906 15.136719 9.304688 15.386719 9.40625 C 15.632812 9.507812 15.851562 9.652344 16.039062 9.84375 C 16.230469 10.03125 16.375 10.25 16.476562 10.5 C 16.578125 10.746094 16.632812 11.003906 16.632812 11.269531 C 16.632812 11.539062 16.578125 11.796875 16.476562 12.042969 C 16.375 12.289062 16.230469 12.507812 16.039062 12.699219 C 15.851562 12.886719 15.632812 13.035156 15.386719 13.136719 C 15.136719 13.238281 14.878906 13.289062 14.613281 13.289062 L 10.046875 13.289062 L 10.046875 16.460938 L 15.257812 16.460938 C 18.113281 16.460938 19.957031 14.375 19.957031 11.148438 C 19.957031 8.023438 18.164062 6.078125 15.28125 6.078125 L 6 6.078125 L 6 2.042969 L 15.28125 2.042969 C 17.761719 2.042969 19.996094 2.945312 21.566406 4.585938 C 23.152344 6.242188 23.992188 8.511719 23.992188 11.148438 C 23.992188 12.4375 23.792969 13.660156 23.394531 14.78125 C 23.007812 15.902344 22.417969 16.902344 21.625 17.785156 C 20.039062 19.535156 17.777344 20.5 15.257812 20.5 Z M 15.257812 20.5 " fill-opacity="1" fill-rule="nonzero"/></g><g fill="#ffffff" fill-opacity="1"><g transform="translate(8.316177, 26.727747)"><g/></g></g><g fill="#ffffff" fill-opacity="1"><g transform="translate(10.721732, 26.727747)"><g/></g></g><g fill="#ffffff" fill-opacity="1"><g transform="translate(13.127288, 26.727747)"><g/></g></g><g fill="#ffffff" fill-opacity="1"><g transform="translate(15.532843, 26.727747)"><g/></g></g><g fill="#ffffff" fill-opacity="1"><g transform="translate(17.938399, 26.727747)"><g/></g></g><g fill="#ffffff" fill-opacity="1"><g transform="translate(20.343955, 26.727747)"><g/></g></g><g clip-path="url(#e7e8840e6d)"><path fill="#ffffff" d="M 20.765625 24.785156 C 20.765625 24.148438 21.1875 23.609375 21.769531 23.4375 L 21.769531 23.160156 C 21.039062 23.339844 20.496094 24 20.496094 24.785156 C 20.496094 25.570312 21.039062 26.230469 21.769531 26.410156 L 21.769531 26.132812 C 21.1875 25.960938 20.765625 25.421875 20.765625 24.785156 Z M 22.039062 26.769531 C 21.945312 26.761719 21.855469 26.75 21.769531 26.734375 C 20.863281 26.546875 20.179688 25.746094 20.179688 24.785156 C 20.179688 23.824219 20.863281 23.019531 21.769531 22.835938 C 21.855469 22.816406 21.945312 22.804688 22.039062 22.800781 C 22.082031 22.796875 22.125 22.792969 22.167969 22.792969 C 22.214844 22.792969 22.261719 22.796875 22.304688 22.800781 C 22.394531 22.804688 22.484375 22.816406 22.570312 22.835938 C 23.203125 22.964844 23.730469 23.398438 23.988281 23.972656 L 23.632812 23.972656 C 23.410156 23.570312 23.027344 23.269531 22.570312 23.160156 L 22.570312 23.4375 C 22.875 23.527344 23.136719 23.71875 23.316406 23.972656 C 23.375 24.054688 23.425781 24.144531 23.46875 24.238281 L 24.359375 24.238281 C 24.335938 24.148438 24.308594 24.058594 24.277344 23.972656 C 23.996094 23.246094 23.351562 22.703125 22.570312 22.5625 C 22.484375 22.546875 22.394531 22.539062 22.304688 22.53125 C 22.261719 22.53125 22.214844 22.527344 22.167969 22.527344 C 22.125 22.527344 22.082031 22.53125 22.039062 22.53125 C 21.945312 22.539062 21.859375 22.546875 21.769531 22.5625 C 20.714844 22.753906 19.914062 23.675781 19.914062 24.785156 C 19.914062 25.894531 20.714844 26.816406 21.769531 27.003906 C 21.859375 27.019531 21.945312 27.03125 22.039062 27.035156 C 22.082031 27.039062 22.125 27.039062 22.167969 27.039062 C 22.214844 27.039062 22.261719 27.039062 22.304688 27.035156 C 22.394531 27.03125 22.484375 27.019531 22.570312 27.003906 C 23.351562 26.863281 23.996094 26.320312 24.277344 25.59375 C 24.308594 25.507812 24.335938 25.421875 24.359375 25.328125 L 23.46875 25.328125 C 23.425781 25.425781 23.375 25.511719 23.316406 25.59375 C 23.136719 25.847656 22.875 26.042969 22.570312 26.132812 L 22.570312 26.410156 C 23.027344 26.296875 23.410156 25.996094 23.632812 25.59375 L 23.988281 25.59375 C 23.730469 26.171875 23.203125 26.605469 22.570312 26.734375 C 22.484375 26.75 22.394531 26.761719 22.304688 26.769531 C 22.261719 26.773438 22.214844 26.773438 22.167969 26.773438 C 22.125 26.773438 22.082031 26.773438 22.039062 26.769531 Z M 22.039062 25.59375 C 21.941406 25.582031 21.851562 25.546875 21.769531 25.503906 C 21.519531 25.363281 21.347656 25.09375 21.347656 24.785156 C 21.347656 24.476562 21.519531 24.207031 21.769531 24.066406 C 21.851562 24.019531 21.941406 23.988281 22.039062 23.972656 C 22.082031 23.964844 22.125 23.960938 22.167969 23.960938 C 22.214844 23.960938 22.261719 23.964844 22.304688 23.972656 C 22.398438 23.988281 22.488281 24.019531 22.570312 24.066406 C 22.824219 24.207031 22.992188 24.476562 22.992188 24.785156 C 22.992188 25.09375 22.824219 25.363281 22.570312 25.503906 C 22.488281 25.546875 22.398438 25.582031 22.304688 25.59375 C 22.261719 25.601562 22.214844 25.605469 22.167969 25.605469 C 22.125 25.605469 22.082031 25.601562 22.039062 25.59375 Z M 21.769531 25.796875 C 21.855469 25.832031 21.945312 25.851562 22.039062 25.867188 C 22.082031 25.871094 22.125 25.875 22.167969 25.875 C 22.214844 25.875 22.261719 25.871094 22.304688 25.867188 C 22.394531 25.851562 22.484375 25.832031 22.570312 25.796875 C 22.972656 25.636719 23.257812 25.242188 23.257812 24.785156 C 23.257812 24.324219 22.972656 23.929688 22.570312 23.769531 C 22.484375 23.738281 22.394531 23.714844 22.304688 23.703125 C 22.261719 23.699219 22.214844 23.695312 22.167969 23.695312 C 22.125 23.695312 22.082031 23.699219 22.039062 23.703125 C 21.945312 23.714844 21.855469 23.738281 21.769531 23.769531 C 21.367188 23.929688 21.082031 24.324219 21.082031 24.785156 C 21.082031 25.242188 21.367188 25.636719 21.769531 25.796875 Z M 22.304688 26.449219 L 22.304688 26.183594 C 22.261719 26.1875 22.214844 26.191406 22.167969 26.191406 C 22.125 26.191406 22.082031 26.1875 22.039062 26.183594 L 22.039062 26.449219 C 22.082031 26.453125 22.125 26.457031 22.167969 26.457031 C 22.214844 26.457031 22.261719 26.453125 22.304688 26.449219 Z M 22.039062 23.117188 L 22.039062 23.386719 C 22.082031 23.378906 22.125 23.378906 22.167969 23.378906 C 22.214844 23.378906 22.261719 23.378906 22.304688 23.386719 L 22.304688 23.117188 C 22.261719 23.113281 22.214844 23.113281 22.167969 23.113281 C 22.125 23.113281 22.082031 23.113281 22.039062 23.117188 Z M 22.039062 23.117188 " fill-opacity="1" fill-rule="evenodd"/></g><g clip-path="url(#b78cfa0c7b)"><path fill="#ffffff" d="M 12.855469 24.121094 L 12.855469 26.730469 L 13.277344 26.460938 L 13.277344 24.390625 L 13.445312 24.390625 L 13.445312 26.550781 L 12.691406 27.03125 L 12.691406 23.953125 L 14.859375 23.953125 L 15.097656 23.546875 L 12.773438 23.546875 L 12.773438 23.378906 L 15.386719 23.378906 L 14.957031 24.121094 Z M 10.988281 23.070312 L 14.617188 23.070312 L 14.433594 22.902344 L 10.894531 22.902344 L 10.394531 23.746094 L 12.082031 23.746094 L 12.082031 26.601562 L 12.246094 26.769531 L 12.246094 23.582031 L 10.6875 23.582031 Z M 10.988281 23.070312 " fill-opacity="1" fill-rule="nonzero"/></g><g clip-path="url(#e3d19d9530)"><path fill="#ffffff" d="M 18.726562 25.40625 L 17.828125 25.925781 L 17.800781 25.941406 L 17.648438 26.027344 L 17.355469 26.195312 L 17.066406 26.363281 L 16.773438 26.195312 L 15.988281 25.742188 L 15.988281 23.824219 L 16.773438 23.371094 L 17.066406 23.203125 L 17.355469 23.371094 L 17.648438 23.539062 L 17.882812 23.675781 L 17.9375 23.707031 L 18.726562 24.164062 L 19.015625 23.996094 L 19.308594 23.824219 L 19.597656 23.660156 L 19.308594 23.492188 L 18.625 23.09375 L 17.648438 22.53125 L 17.355469 22.699219 L 17.648438 22.867188 L 18.175781 23.171875 L 19.015625 23.660156 L 18.726562 23.824219 L 18.03125 23.425781 L 17.648438 23.203125 L 17.355469 23.035156 L 17.066406 22.867188 L 16.773438 23.035156 L 16.671875 23.09375 L 16.484375 23.203125 L 15.699219 23.660156 L 15.699219 25.910156 L 16.484375 26.363281 L 16.671875 26.472656 L 16.773438 26.53125 L 17.066406 26.699219 L 17.355469 26.53125 L 17.648438 26.363281 L 17.972656 26.175781 L 18.726562 25.742188 L 19.015625 25.910156 L 18.035156 26.476562 L 17.648438 26.699219 L 17.355469 26.867188 L 17.648438 27.035156 L 18.179688 26.730469 L 18.625 26.472656 L 19.308594 26.078125 L 19.597656 25.910156 L 19.308594 25.742188 L 19.015625 25.574219 Z M 16.570312 24.347656 L 16.570312 24.164062 L 17.355469 23.710938 L 17.066406 23.539062 L 16.28125 23.996094 L 16.28125 24.640625 L 18.132812 24.640625 L 18.132812 24.929688 L 16.28125 24.929688 L 16.28125 25.574219 L 17.066406 26.027344 L 17.355469 25.859375 L 16.570312 25.40625 L 16.570312 25.222656 L 18.421875 25.222656 L 18.421875 24.347656 Z M 16.570312 24.347656 " fill-opacity="1" fill-rule="evenodd"/></g><g clip-path="url(#f4bf3939ce)"><path fill="#ffffff" d="M 6.632812 22.902344 L 8.03125 22.902344 C 8.167969 22.902344 8.304688 22.917969 8.433594 22.941406 C 8.566406 22.96875 8.695312 23.007812 8.820312 23.0625 C 8.945312 23.113281 9.066406 23.175781 9.175781 23.253906 C 9.289062 23.328125 9.394531 23.414062 9.488281 23.511719 C 9.585938 23.605469 9.671875 23.710938 9.746094 23.824219 C 9.820312 23.933594 9.886719 24.054688 9.9375 24.179688 C 9.992188 24.304688 10.03125 24.433594 10.054688 24.566406 C 10.082031 24.695312 10.097656 24.832031 10.097656 24.96875 C 10.097656 25.105469 10.082031 25.238281 10.054688 25.367188 C 10.03125 25.503906 9.988281 25.632812 9.9375 25.753906 C 9.886719 25.878906 9.820312 26 9.746094 26.113281 C 9.671875 26.226562 9.585938 26.328125 9.488281 26.425781 C 9.394531 26.519531 9.289062 26.605469 9.175781 26.683594 C 9.066406 26.757812 8.945312 26.820312 8.820312 26.875 C 8.695312 26.925781 8.566406 26.964844 8.433594 26.992188 C 8.304688 27.019531 8.167969 27.03125 8.03125 27.03125 L 6.632812 27.03125 C 6.621094 27.03125 6.609375 27.03125 6.597656 27.03125 C 6.566406 27.027344 6.535156 27.019531 6.507812 27.007812 C 6.476562 26.992188 6.453125 26.972656 6.429688 26.949219 C 6.410156 26.921875 6.386719 26.898438 6.367188 26.871094 C 6.34375 26.84375 6.324219 26.816406 6.304688 26.789062 C 6.289062 26.765625 6.269531 26.734375 6.25 26.707031 C 6.234375 26.679688 6.21875 26.652344 6.203125 26.625 L 6.199219 26.621094 C 6.183594 26.59375 6.171875 26.5625 6.15625 26.535156 C 6.144531 26.507812 6.128906 26.476562 6.117188 26.445312 C 6.105469 26.414062 6.09375 26.382812 6.082031 26.355469 L 6.082031 26.351562 C 6.070312 26.320312 6.0625 26.289062 6.054688 26.261719 C 6.042969 26.222656 6.03125 26.179688 6.023438 26.140625 C 6.015625 26.097656 6.011719 26.058594 6.003906 26.023438 C 6 25.984375 5.996094 25.941406 5.996094 25.902344 C 5.992188 25.859375 5.992188 25.820312 5.996094 25.777344 C 5.996094 25.738281 6 25.695312 6.003906 25.65625 C 6.007812 25.617188 6.015625 25.578125 6.023438 25.539062 C 6.03125 25.5 6.039062 25.460938 6.050781 25.421875 C 6.058594 25.382812 6.074219 25.347656 6.085938 25.308594 C 6.101562 25.269531 6.117188 25.234375 6.136719 25.195312 C 6.152344 25.160156 6.171875 25.125 6.191406 25.089844 C 6.210938 25.054688 6.234375 25.023438 6.257812 24.988281 C 6.28125 24.957031 6.304688 24.925781 6.332031 24.894531 L 6.355469 24.867188 C 6.453125 24.746094 6.6875 24.597656 6.6875 24.597656 L 6.703125 24.585938 C 6.742188 24.566406 6.78125 24.542969 6.816406 24.527344 C 6.859375 24.507812 6.898438 24.492188 6.9375 24.476562 C 6.980469 24.460938 7.023438 24.445312 7.066406 24.433594 C 7.109375 24.417969 7.152344 24.410156 7.195312 24.398438 C 7.230469 24.390625 7.269531 24.382812 7.308594 24.378906 C 7.347656 24.371094 7.386719 24.367188 7.429688 24.363281 L 7.507812 24.355469 L 7.507812 24.101562 C 7.507812 24.066406 7.515625 24.03125 7.527344 24 C 7.542969 23.96875 7.558594 23.941406 7.582031 23.917969 L 7.585938 23.914062 C 7.609375 23.890625 7.640625 23.871094 7.671875 23.855469 C 7.703125 23.84375 7.738281 23.835938 7.773438 23.835938 C 7.789062 23.835938 7.808594 23.839844 7.824219 23.84375 C 7.84375 23.84375 7.859375 23.851562 7.875 23.855469 L 7.878906 23.859375 C 7.894531 23.867188 7.910156 23.875 7.921875 23.882812 C 7.933594 23.894531 7.949219 23.902344 7.960938 23.914062 L 9 24.832031 C 9.027344 24.855469 9.046875 24.882812 9.0625 24.914062 C 9.078125 24.945312 9.085938 24.980469 9.089844 25.015625 C 9.089844 25.046875 9.085938 25.082031 9.074219 25.117188 C 9.0625 25.148438 9.046875 25.179688 9.023438 25.203125 L 9.011719 25.21875 L 8.210938 25.921875 C 8.207031 25.925781 8.207031 25.925781 8.203125 25.929688 L 7.960938 26.144531 C 7.949219 26.15625 7.933594 26.167969 7.921875 26.175781 C 7.910156 26.183594 7.894531 26.191406 7.878906 26.199219 L 7.875 26.199219 C 7.859375 26.207031 7.84375 26.210938 7.824219 26.214844 C 7.808594 26.21875 7.789062 26.222656 7.773438 26.222656 C 7.738281 26.222656 7.703125 26.214844 7.671875 26.203125 C 7.640625 26.1875 7.609375 26.167969 7.585938 26.144531 C 7.5625 26.117188 7.542969 26.089844 7.527344 26.058594 C 7.515625 26.027344 7.507812 25.992188 7.507812 25.957031 L 7.507812 25.664062 L 7.464844 25.667969 C 7.441406 25.671875 7.417969 25.675781 7.394531 25.679688 C 7.355469 25.6875 7.316406 25.695312 7.28125 25.707031 C 7.25 25.71875 7.214844 25.734375 7.183594 25.75 C 7.121094 25.789062 7.066406 25.835938 7.019531 25.890625 C 6.972656 25.949219 6.9375 26.019531 6.910156 26.09375 C 6.84375 26.277344 6.835938 26.503906 6.851562 26.699219 L 8.03125 26.699219 C 8.148438 26.699219 8.261719 26.6875 8.371094 26.667969 C 8.480469 26.644531 8.589844 26.609375 8.691406 26.566406 C 8.796875 26.523438 8.898438 26.46875 8.992188 26.40625 C 9.085938 26.34375 9.175781 26.269531 9.253906 26.191406 C 9.335938 26.109375 9.410156 26.019531 9.472656 25.925781 C 9.535156 25.832031 9.589844 25.734375 9.632812 25.628906 C 9.675781 25.523438 9.710938 25.417969 9.730469 25.304688 C 9.753906 25.195312 9.765625 25.082031 9.765625 24.96875 C 9.765625 24.851562 9.753906 24.738281 9.730469 24.628906 C 9.710938 24.515625 9.675781 24.410156 9.632812 24.308594 C 9.589844 24.203125 9.535156 24.101562 9.472656 24.007812 C 9.410156 23.914062 9.335938 23.824219 9.257812 23.746094 L 9.253906 23.742188 C 9.175781 23.664062 9.085938 23.589844 8.992188 23.527344 C 8.898438 23.464844 8.796875 23.410156 8.691406 23.367188 C 8.589844 23.324219 8.480469 23.289062 8.371094 23.269531 C 8.261719 23.246094 8.148438 23.234375 8.03125 23.234375 L 6.6875 23.234375 L 6.6875 23.886719 C 6.6875 23.976562 6.613281 24.050781 6.519531 24.050781 C 6.429688 24.050781 6.355469 23.976562 6.355469 23.886719 L 6.355469 23.179688 C 6.355469 23.144531 6.363281 23.105469 6.375 23.074219 C 6.390625 23.039062 6.410156 23.011719 6.4375 22.984375 C 6.460938 22.960938 6.492188 22.9375 6.527344 22.925781 C 6.558594 22.910156 6.59375 22.902344 6.632812 22.902344 M 7.960938 25.703125 C 7.964844 25.699219 7.964844 25.699219 7.96875 25.695312 L 8.722656 25.03125 L 7.839844 24.25 L 7.839844 24.648438 C 7.839844 24.667969 7.824219 24.683594 7.804688 24.683594 L 7.671875 24.683594 C 7.636719 24.683594 7.601562 24.683594 7.566406 24.683594 C 7.53125 24.6875 7.496094 24.6875 7.460938 24.691406 C 7.429688 24.695312 7.394531 24.699219 7.363281 24.703125 C 7.332031 24.710938 7.300781 24.714844 7.265625 24.722656 C 7.230469 24.730469 7.191406 24.738281 7.15625 24.75 C 7.125 24.761719 7.089844 24.773438 7.054688 24.785156 C 7.023438 24.796875 6.992188 24.808594 6.960938 24.824219 C 6.929688 24.839844 6.902344 24.855469 6.871094 24.871094 C 6.859375 24.878906 6.84375 24.890625 6.832031 24.894531 C 6.8125 24.90625 6.792969 24.921875 6.773438 24.9375 C 6.753906 24.949219 6.734375 24.964844 6.714844 24.980469 C 6.679688 25.007812 6.652344 25.039062 6.621094 25.066406 L 6.582031 25.109375 C 6.5625 25.132812 6.542969 25.15625 6.527344 25.183594 C 6.507812 25.207031 6.492188 25.230469 6.476562 25.257812 C 6.460938 25.285156 6.445312 25.3125 6.433594 25.339844 C 6.417969 25.367188 6.40625 25.394531 6.398438 25.425781 C 6.386719 25.453125 6.375 25.480469 6.367188 25.511719 C 6.359375 25.539062 6.351562 25.570312 6.347656 25.601562 C 6.339844 25.632812 6.335938 25.664062 6.332031 25.695312 C 6.328125 25.726562 6.324219 25.757812 6.324219 25.789062 C 6.324219 25.820312 6.324219 25.851562 6.324219 25.882812 C 6.328125 25.914062 6.328125 25.945312 6.335938 25.980469 L 6.335938 25.984375 C 6.339844 26.015625 6.34375 26.046875 6.351562 26.078125 C 6.355469 26.109375 6.363281 26.140625 6.371094 26.171875 C 6.378906 26.195312 6.386719 26.222656 6.394531 26.246094 C 6.40625 26.273438 6.414062 26.296875 6.421875 26.320312 C 6.433594 26.34375 6.445312 26.367188 6.453125 26.390625 C 6.464844 26.414062 6.476562 26.4375 6.492188 26.464844 L 6.515625 26.503906 C 6.507812 26.351562 6.546875 26.128906 6.597656 25.988281 C 6.636719 25.875 6.691406 25.769531 6.765625 25.675781 C 6.835938 25.59375 6.921875 25.519531 7.027344 25.460938 C 7.070312 25.4375 7.121094 25.414062 7.171875 25.398438 C 7.222656 25.378906 7.273438 25.367188 7.328125 25.355469 C 7.382812 25.34375 7.441406 25.335938 7.496094 25.332031 C 7.558594 25.328125 7.617188 25.328125 7.679688 25.332031 L 7.804688 25.335938 C 7.824219 25.335938 7.839844 25.351562 7.839844 25.371094 L 7.839844 25.8125 Z M 7.960938 25.703125 " fill-opacity="1" fill-rule="evenodd"/></g></svg>