<svg xmlns="http://www.w3.org/2000/svg" xmlns:xlink="http://www.w3.org/1999/xlink" width="60" zoomAndPan="magnify" viewBox="0 0 45 44.999999" height="60" preserveAspectRatio="xMidYMid meet" version="1.0"><defs><clipPath id="142eb1a517"><path d="M 0.691406 2 L 37 2 L 37 43 L 0.691406 43 Z M 0.691406 2 " clip-rule="nonzero"/></clipPath><clipPath id="a7e99bde2b"><path d="M 23 24 L 44.191406 24 L 44.191406 40 L 23 40 Z M 23 24 " clip-rule="nonzero"/></clipPath></defs><g clip-path="url(#142eb1a517)"><path fill="#ffffff" d="M 35.710938 38.355469 C 35.527344 38.355469 35.371094 38.417969 35.242188 38.546875 C 35.113281 38.675781 35.046875 38.832031 35.046875 39.015625 L 35.046875 39.675781 C 35.046875 39.9375 34.996094 40.191406 34.898438 40.433594 C 34.796875 40.675781 34.652344 40.890625 34.46875 41.074219 C 34.28125 41.261719 34.066406 41.40625 33.824219 41.507812 C 33.582031 41.605469 33.328125 41.65625 33.066406 41.65625 L 10.601562 41.65625 C 10.339844 41.65625 10.085938 41.605469 9.84375 41.507812 C 9.601562 41.40625 9.386719 41.261719 9.203125 41.074219 C 9.015625 40.890625 8.875 40.675781 8.773438 40.433594 C 8.671875 40.191406 8.621094 39.9375 8.621094 39.675781 L 8.621094 37.691406 L 26.460938 37.691406 C 26.640625 37.691406 26.796875 37.628906 26.925781 37.5 C 27.054688 37.371094 27.121094 37.214844 27.121094 37.03125 C 27.121094 36.851562 27.054688 36.695312 26.925781 36.566406 C 26.796875 36.4375 26.640625 36.371094 26.460938 36.371094 L 3.996094 36.371094 C 3.734375 36.371094 3.480469 36.320312 3.238281 36.21875 C 2.996094 36.121094 2.78125 35.976562 2.59375 35.789062 C 2.410156 35.605469 2.265625 35.390625 2.164062 35.148438 C 2.066406 34.90625 2.015625 34.652344 2.015625 34.390625 L 2.015625 5.320312 C 2.015625 5.058594 2.066406 4.804688 2.164062 4.5625 C 2.265625 4.320312 2.410156 4.105469 2.59375 3.917969 C 2.78125 3.734375 2.996094 3.589844 3.238281 3.488281 C 3.480469 3.386719 3.734375 3.335938 3.996094 3.335938 L 26.460938 3.335938 C 26.722656 3.335938 26.976562 3.386719 27.21875 3.488281 C 27.460938 3.589844 27.675781 3.734375 27.859375 3.917969 C 28.046875 4.105469 28.191406 4.320312 28.289062 4.5625 C 28.390625 4.804688 28.441406 5.058594 28.441406 5.320312 L 28.441406 28.445312 C 28.441406 28.625 28.507812 28.78125 28.636719 28.910156 C 28.765625 29.039062 28.921875 29.105469 29.101562 29.105469 C 29.285156 29.105469 29.441406 29.039062 29.570312 28.910156 C 29.699219 28.78125 29.761719 28.625 29.761719 28.445312 L 29.761719 8.621094 L 33.066406 8.621094 C 33.328125 8.625 33.582031 8.671875 33.824219 8.773438 C 34.066406 8.875 34.28125 9.019531 34.46875 9.203125 C 34.652344 9.390625 34.796875 9.605469 34.898438 9.847656 C 34.996094 10.089844 35.046875 10.34375 35.046875 10.605469 L 35.046875 27.78125 C 35.046875 27.964844 35.113281 28.121094 35.242188 28.25 C 35.371094 28.378906 35.527344 28.445312 35.710938 28.445312 C 35.890625 28.445312 36.046875 28.378906 36.175781 28.25 C 36.304688 28.121094 36.371094 27.964844 36.371094 27.78125 L 36.371094 10.605469 C 36.371094 10.167969 36.285156 9.746094 36.117188 9.339844 C 35.949219 8.9375 35.710938 8.578125 35.402344 8.269531 C 35.089844 7.960938 34.734375 7.722656 34.332031 7.554688 C 33.925781 7.386719 33.503906 7.300781 33.066406 7.300781 L 29.761719 7.300781 L 29.761719 5.320312 C 29.761719 4.882812 29.679688 4.460938 29.511719 4.054688 C 29.34375 3.652344 29.105469 3.292969 28.792969 2.984375 C 28.484375 2.675781 28.128906 2.4375 27.722656 2.269531 C 27.320312 2.101562 26.898438 2.015625 26.460938 2.015625 L 3.996094 2.015625 C 3.558594 2.015625 3.136719 2.101562 2.734375 2.269531 C 2.328125 2.4375 1.972656 2.675781 1.660156 2.984375 C 1.351562 3.292969 1.113281 3.652344 0.945312 4.054688 C 0.777344 4.460938 0.691406 4.882812 0.691406 5.320312 L 0.691406 34.390625 C 0.691406 34.828125 0.777344 35.25 0.945312 35.652344 C 1.113281 36.058594 1.351562 36.414062 1.660156 36.722656 C 1.972656 37.035156 2.328125 37.273438 2.734375 37.441406 C 3.136719 37.609375 3.558594 37.691406 3.996094 37.691406 L 7.300781 37.691406 L 7.300781 39.675781 C 7.300781 40.113281 7.382812 40.535156 7.550781 40.9375 C 7.71875 41.34375 7.957031 41.699219 8.269531 42.011719 C 8.578125 42.320312 8.933594 42.558594 9.339844 42.726562 C 9.742188 42.894531 10.164062 42.976562 10.601562 42.980469 L 33.066406 42.980469 C 33.503906 42.976562 33.925781 42.894531 34.332031 42.726562 C 34.734375 42.558594 35.089844 42.320312 35.402344 42.011719 C 35.710938 41.699219 35.949219 41.34375 36.117188 40.9375 C 36.285156 40.535156 36.371094 40.113281 36.371094 39.675781 L 36.371094 39.015625 C 36.371094 38.832031 36.304688 38.675781 36.175781 38.546875 C 36.046875 38.417969 35.890625 38.355469 35.710938 38.355469 Z M 35.710938 38.355469 " fill-opacity="1" fill-rule="nonzero"/></g><path fill="#ffffff" d="M 15.226562 5.980469 L 5.976562 5.980469 C 5.714844 5.980469 5.460938 6.03125 5.21875 6.132812 C 4.976562 6.230469 4.761719 6.375 4.578125 6.5625 C 4.390625 6.746094 4.246094 6.960938 4.148438 7.203125 C 4.046875 7.445312 3.996094 7.699219 3.996094 7.960938 C 3.996094 8.226562 4.046875 8.476562 4.148438 8.71875 C 4.246094 8.964844 4.390625 9.179688 4.578125 9.363281 C 4.761719 9.550781 4.976562 9.691406 5.21875 9.792969 C 5.460938 9.894531 5.714844 9.945312 5.976562 9.945312 L 15.226562 9.945312 C 15.492188 9.945312 15.742188 9.894531 15.988281 9.792969 C 16.230469 9.691406 16.445312 9.550781 16.628906 9.363281 C 16.816406 9.179688 16.957031 8.964844 17.058594 8.71875 C 17.160156 8.476562 17.210938 8.226562 17.210938 7.960938 C 17.210938 7.699219 17.160156 7.445312 17.058594 7.203125 C 16.957031 6.960938 16.816406 6.746094 16.628906 6.5625 C 16.445312 6.375 16.230469 6.230469 15.988281 6.132812 C 15.742188 6.03125 15.492188 5.980469 15.226562 5.980469 Z M 15.226562 8.621094 L 5.976562 8.621094 C 5.796875 8.621094 5.640625 8.558594 5.511719 8.429688 C 5.382812 8.300781 5.316406 8.144531 5.316406 7.960938 C 5.316406 7.78125 5.382812 7.625 5.511719 7.496094 C 5.640625 7.367188 5.796875 7.300781 5.976562 7.300781 L 15.226562 7.300781 C 15.410156 7.300781 15.566406 7.367188 15.695312 7.496094 C 15.824219 7.625 15.886719 7.78125 15.886719 7.960938 C 15.886719 8.144531 15.824219 8.300781 15.695312 8.429688 C 15.566406 8.558594 15.410156 8.621094 15.226562 8.621094 Z M 15.226562 8.621094 " fill-opacity="1" fill-rule="nonzero"/><path fill="#ffffff" d="M 24.476562 5.980469 L 20.511719 5.980469 C 20.25 5.980469 19.996094 6.03125 19.753906 6.132812 C 19.511719 6.230469 19.296875 6.375 19.113281 6.5625 C 18.925781 6.746094 18.78125 6.960938 18.683594 7.203125 C 18.582031 7.445312 18.53125 7.699219 18.53125 7.960938 C 18.53125 8.226562 18.582031 8.476562 18.683594 8.71875 C 18.78125 8.964844 18.925781 9.179688 19.113281 9.363281 C 19.296875 9.550781 19.511719 9.691406 19.753906 9.792969 C 19.996094 9.894531 20.25 9.945312 20.511719 9.945312 L 24.476562 9.945312 C 24.742188 9.945312 24.992188 9.894531 25.234375 9.792969 C 25.480469 9.691406 25.691406 9.550781 25.878906 9.363281 C 26.066406 9.179688 26.207031 8.964844 26.308594 8.71875 C 26.410156 8.476562 26.460938 8.226562 26.460938 7.960938 C 26.460938 7.699219 26.410156 7.445312 26.308594 7.203125 C 26.207031 6.960938 26.066406 6.746094 25.878906 6.5625 C 25.691406 6.375 25.480469 6.230469 25.234375 6.132812 C 24.992188 6.03125 24.742188 5.980469 24.476562 5.980469 Z M 24.476562 8.621094 L 20.511719 8.621094 C 20.332031 8.621094 20.175781 8.558594 20.046875 8.429688 C 19.917969 8.300781 19.851562 8.144531 19.851562 7.960938 C 19.851562 7.78125 19.917969 7.625 20.046875 7.496094 C 20.175781 7.367188 20.332031 7.300781 20.511719 7.300781 L 24.476562 7.300781 C 24.660156 7.300781 24.816406 7.367188 24.945312 7.496094 C 25.074219 7.625 25.136719 7.78125 25.136719 7.960938 C 25.136719 8.144531 25.074219 8.300781 24.945312 8.429688 C 24.816406 8.558594 24.660156 8.621094 24.476562 8.621094 Z M 24.476562 8.621094 " fill-opacity="1" fill-rule="nonzero"/><path fill="#ffffff" d="M 15.226562 11.925781 L 5.976562 11.925781 C 5.714844 11.925781 5.460938 11.976562 5.21875 12.078125 C 4.976562 12.179688 4.761719 12.320312 4.578125 12.507812 C 4.390625 12.691406 4.246094 12.90625 4.148438 13.148438 C 4.046875 13.394531 3.996094 13.644531 3.996094 13.910156 C 3.996094 14.171875 4.046875 14.425781 4.148438 14.667969 C 4.246094 14.910156 4.390625 15.125 4.578125 15.308594 C 4.761719 15.496094 4.976562 15.640625 5.21875 15.738281 C 5.460938 15.839844 5.714844 15.890625 5.976562 15.890625 L 15.226562 15.890625 C 15.492188 15.890625 15.742188 15.839844 15.988281 15.738281 C 16.230469 15.640625 16.445312 15.496094 16.628906 15.308594 C 16.816406 15.125 16.957031 14.910156 17.058594 14.667969 C 17.160156 14.425781 17.210938 14.171875 17.210938 13.910156 C 17.210938 13.644531 17.160156 13.394531 17.058594 13.148438 C 16.957031 12.90625 16.816406 12.691406 16.628906 12.507812 C 16.445312 12.320312 16.230469 12.179688 15.988281 12.078125 C 15.742188 11.976562 15.492188 11.925781 15.226562 11.925781 Z M 15.226562 14.570312 L 5.976562 14.570312 C 5.796875 14.570312 5.640625 14.503906 5.511719 14.375 C 5.382812 14.246094 5.316406 14.089844 5.316406 13.910156 C 5.316406 13.726562 5.382812 13.570312 5.511719 13.441406 C 5.640625 13.3125 5.796875 13.246094 5.976562 13.246094 L 15.226562 13.246094 C 15.410156 13.246094 15.566406 13.3125 15.695312 13.441406 C 15.824219 13.570312 15.886719 13.726562 15.886719 13.910156 C 15.886719 14.089844 15.824219 14.246094 15.695312 14.375 C 15.566406 14.503906 15.410156 14.570312 15.226562 14.570312 Z M 15.226562 14.570312 " fill-opacity="1" fill-rule="nonzero"/><path fill="#ffffff" d="M 24.476562 11.925781 L 20.511719 11.925781 C 20.25 11.925781 19.996094 11.976562 19.753906 12.078125 C 19.511719 12.179688 19.296875 12.320312 19.113281 12.507812 C 18.925781 12.691406 18.78125 12.90625 18.683594 13.148438 C 18.582031 13.394531 18.53125 13.644531 18.53125 13.910156 C 18.53125 14.171875 18.582031 14.425781 18.683594 14.667969 C 18.78125 14.910156 18.925781 15.125 19.113281 15.308594 C 19.296875 15.496094 19.511719 15.640625 19.753906 15.738281 C 19.996094 15.839844 20.25 15.890625 20.511719 15.890625 L 24.476562 15.890625 C 24.742188 15.890625 24.992188 15.839844 25.234375 15.738281 C 25.480469 15.640625 25.691406 15.496094 25.878906 15.308594 C 26.066406 15.125 26.207031 14.910156 26.308594 14.667969 C 26.410156 14.425781 26.460938 14.171875 26.460938 13.910156 C 26.460938 13.644531 26.410156 13.394531 26.308594 13.148438 C 26.207031 12.90625 26.066406 12.691406 25.878906 12.507812 C 25.691406 12.320312 25.480469 12.179688 25.234375 12.078125 C 24.992188 11.976562 24.742188 11.925781 24.476562 11.925781 Z M 24.476562 14.570312 L 20.511719 14.570312 C 20.332031 14.570312 20.175781 14.503906 20.046875 14.375 C 19.917969 14.246094 19.851562 14.089844 19.851562 13.910156 C 19.851562 13.726562 19.917969 13.570312 20.046875 13.441406 C 20.175781 13.3125 20.332031 13.246094 20.511719 13.246094 L 24.476562 13.246094 C 24.660156 13.246094 24.816406 13.3125 24.945312 13.441406 C 25.074219 13.570312 25.136719 13.726562 25.136719 13.910156 C 25.136719 14.089844 25.074219 14.246094 24.945312 14.375 C 24.816406 14.503906 24.660156 14.570312 24.476562 14.570312 Z M 24.476562 14.570312 " fill-opacity="1" fill-rule="nonzero"/><path fill="#ffffff" d="M 15.226562 17.871094 L 5.976562 17.871094 C 5.714844 17.871094 5.460938 17.921875 5.21875 18.023438 C 4.976562 18.125 4.761719 18.265625 4.578125 18.453125 C 4.390625 18.640625 4.246094 18.851562 4.148438 19.097656 C 4.046875 19.339844 3.996094 19.589844 3.996094 19.855469 C 3.996094 20.117188 4.046875 20.371094 4.148438 20.613281 C 4.246094 20.855469 4.390625 21.070312 4.578125 21.257812 C 4.761719 21.441406 4.976562 21.585938 5.21875 21.6875 C 5.460938 21.785156 5.714844 21.835938 5.976562 21.835938 L 15.226562 21.835938 C 15.492188 21.835938 15.742188 21.785156 15.988281 21.6875 C 16.230469 21.585938 16.445312 21.441406 16.628906 21.257812 C 16.816406 21.070312 16.957031 20.855469 17.058594 20.613281 C 17.160156 20.371094 17.210938 20.117188 17.210938 19.855469 C 17.210938 19.589844 17.160156 19.339844 17.058594 19.097656 C 16.957031 18.851562 16.816406 18.640625 16.628906 18.453125 C 16.445312 18.265625 16.230469 18.125 15.988281 18.023438 C 15.742188 17.921875 15.492188 17.871094 15.226562 17.871094 Z M 15.226562 20.515625 L 5.976562 20.515625 C 5.796875 20.515625 5.640625 20.449219 5.511719 20.320312 C 5.382812 20.191406 5.316406 20.035156 5.316406 19.855469 C 5.316406 19.671875 5.382812 19.515625 5.511719 19.386719 C 5.640625 19.257812 5.796875 19.195312 5.976562 19.195312 L 15.226562 19.195312 C 15.410156 19.195312 15.566406 19.257812 15.695312 19.386719 C 15.824219 19.515625 15.886719 19.671875 15.886719 19.855469 C 15.886719 20.035156 15.824219 20.191406 15.695312 20.320312 C 15.566406 20.449219 15.410156 20.515625 15.226562 20.515625 Z M 15.226562 20.515625 " fill-opacity="1" fill-rule="nonzero"/><path fill="#ffffff" d="M 24.476562 17.871094 L 20.511719 17.871094 C 20.25 17.871094 19.996094 17.921875 19.753906 18.023438 C 19.511719 18.125 19.296875 18.265625 19.113281 18.453125 C 18.925781 18.640625 18.78125 18.851562 18.683594 19.097656 C 18.582031 19.339844 18.53125 19.589844 18.53125 19.855469 C 18.53125 20.117188 18.582031 20.371094 18.683594 20.613281 C 18.78125 20.855469 18.925781 21.070312 19.113281 21.257812 C 19.296875 21.441406 19.511719 21.585938 19.753906 21.6875 C 19.996094 21.785156 20.25 21.835938 20.511719 21.835938 L 24.476562 21.835938 C 24.742188 21.835938 24.992188 21.785156 25.234375 21.6875 C 25.480469 21.585938 25.691406 21.441406 25.878906 21.257812 C 26.066406 21.070312 26.207031 20.855469 26.308594 20.613281 C 26.410156 20.371094 26.460938 20.117188 26.460938 19.855469 C 26.460938 19.589844 26.410156 19.339844 26.308594 19.097656 C 26.207031 18.851562 26.066406 18.640625 25.878906 18.453125 C 25.691406 18.265625 25.480469 18.125 25.234375 18.023438 C 24.992188 17.921875 24.742188 17.871094 24.476562 17.871094 Z M 24.476562 20.515625 L 20.511719 20.515625 C 20.332031 20.515625 20.175781 20.449219 20.046875 20.320312 C 19.917969 20.191406 19.851562 20.035156 19.851562 19.855469 C 19.851562 19.671875 19.917969 19.515625 20.046875 19.386719 C 20.175781 19.257812 20.332031 19.195312 20.511719 19.195312 L 24.476562 19.195312 C 24.660156 19.195312 24.816406 19.257812 24.945312 19.386719 C 25.074219 19.515625 25.136719 19.671875 25.136719 19.855469 C 25.136719 20.035156 25.074219 20.191406 24.945312 20.320312 C 24.816406 20.449219 24.660156 20.515625 24.476562 20.515625 Z M 24.476562 20.515625 " fill-opacity="1" fill-rule="nonzero"/><path fill="#ffffff" d="M 15.226562 23.820312 L 5.976562 23.820312 C 5.714844 23.820312 5.460938 23.867188 5.21875 23.96875 C 4.976562 24.070312 4.761719 24.214844 4.578125 24.398438 C 4.390625 24.585938 4.246094 24.800781 4.148438 25.042969 C 4.046875 25.285156 3.996094 25.539062 3.996094 25.800781 C 3.996094 26.0625 4.046875 26.316406 4.148438 26.558594 C 4.246094 26.800781 4.390625 27.015625 4.578125 27.203125 C 4.761719 27.386719 4.976562 27.53125 5.21875 27.632812 C 5.460938 27.734375 5.714844 27.78125 5.976562 27.78125 L 15.226562 27.78125 C 15.492188 27.78125 15.742188 27.734375 15.988281 27.632812 C 16.230469 27.53125 16.445312 27.386719 16.628906 27.203125 C 16.816406 27.015625 16.957031 26.800781 17.058594 26.558594 C 17.160156 26.316406 17.210938 26.0625 17.210938 25.800781 C 17.210938 25.539062 17.160156 25.285156 17.058594 25.042969 C 16.957031 24.800781 16.816406 24.585938 16.628906 24.398438 C 16.445312 24.214844 16.230469 24.070312 15.988281 23.96875 C 15.742188 23.867188 15.492188 23.820312 15.226562 23.820312 Z M 15.226562 26.460938 L 5.976562 26.460938 C 5.796875 26.460938 5.640625 26.398438 5.511719 26.269531 C 5.382812 26.140625 5.316406 25.984375 5.316406 25.800781 C 5.316406 25.617188 5.382812 25.460938 5.511719 25.332031 C 5.640625 25.203125 5.796875 25.140625 5.976562 25.140625 L 15.226562 25.140625 C 15.410156 25.140625 15.566406 25.203125 15.695312 25.332031 C 15.824219 25.460938 15.886719 25.617188 15.886719 25.800781 C 15.886719 25.984375 15.824219 26.140625 15.695312 26.269531 C 15.566406 26.398438 15.410156 26.460938 15.226562 26.460938 Z M 15.226562 26.460938 " fill-opacity="1" fill-rule="nonzero"/><path fill="#ffffff" d="M 26.460938 25.800781 C 26.460938 25.539062 26.410156 25.285156 26.308594 25.042969 C 26.207031 24.800781 26.0625 24.585938 25.878906 24.398438 C 25.691406 24.214844 25.476562 24.070312 25.234375 23.96875 C 24.992188 23.871094 24.742188 23.820312 24.476562 23.820312 L 20.511719 23.820312 C 20.25 23.820312 19.996094 23.867188 19.753906 23.96875 C 19.511719 24.070312 19.296875 24.214844 19.113281 24.398438 C 18.925781 24.585938 18.78125 24.800781 18.683594 25.042969 C 18.582031 25.285156 18.53125 25.539062 18.53125 25.800781 C 18.53125 26.0625 18.582031 26.316406 18.683594 26.558594 C 18.78125 26.800781 18.925781 27.015625 19.113281 27.203125 C 19.296875 27.386719 19.511719 27.53125 19.753906 27.632812 C 19.996094 27.734375 20.25 27.78125 20.511719 27.78125 L 24.476562 27.78125 C 24.742188 27.78125 24.992188 27.730469 25.234375 27.632812 C 25.476562 27.53125 25.691406 27.386719 25.878906 27.203125 C 26.0625 27.015625 26.207031 26.800781 26.308594 26.558594 C 26.410156 26.316406 26.460938 26.0625 26.460938 25.800781 Z M 19.851562 25.800781 C 19.851562 25.617188 19.917969 25.460938 20.046875 25.332031 C 20.175781 25.203125 20.332031 25.140625 20.511719 25.140625 L 24.476562 25.140625 C 24.660156 25.140625 24.816406 25.203125 24.945312 25.332031 C 25.074219 25.460938 25.136719 25.617188 25.136719 25.800781 C 25.136719 25.984375 25.074219 26.140625 24.945312 26.269531 C 24.816406 26.398438 24.660156 26.460938 24.476562 26.460938 L 20.511719 26.460938 C 20.332031 26.460938 20.175781 26.398438 20.046875 26.269531 C 19.917969 26.140625 19.851562 25.984375 19.851562 25.800781 Z M 19.851562 25.800781 " fill-opacity="1" fill-rule="nonzero"/><path fill="#ffffff" d="M 15.226562 29.765625 L 5.976562 29.765625 C 5.714844 29.765625 5.460938 29.816406 5.21875 29.914062 C 4.976562 30.015625 4.761719 30.160156 4.578125 30.34375 C 4.390625 30.53125 4.246094 30.746094 4.148438 30.988281 C 4.046875 31.230469 3.996094 31.484375 3.996094 31.746094 C 3.996094 32.011719 4.046875 32.261719 4.148438 32.503906 C 4.246094 32.75 4.390625 32.960938 4.578125 33.148438 C 4.761719 33.335938 4.976562 33.476562 5.21875 33.578125 C 5.460938 33.679688 5.714844 33.730469 5.976562 33.730469 L 15.226562 33.730469 C 15.492188 33.730469 15.742188 33.679688 15.988281 33.578125 C 16.230469 33.476562 16.445312 33.335938 16.628906 33.148438 C 16.816406 32.960938 16.957031 32.75 17.058594 32.503906 C 17.160156 32.261719 17.210938 32.011719 17.210938 31.746094 C 17.210938 31.484375 17.160156 31.230469 17.058594 30.988281 C 16.957031 30.746094 16.816406 30.53125 16.628906 30.34375 C 16.445312 30.160156 16.230469 30.015625 15.988281 29.914062 C 15.742188 29.816406 15.492188 29.765625 15.226562 29.765625 Z M 15.226562 32.40625 L 5.976562 32.40625 C 5.796875 32.40625 5.640625 32.34375 5.511719 32.214844 C 5.382812 32.085938 5.316406 31.929688 5.316406 31.746094 C 5.316406 31.566406 5.382812 31.410156 5.511719 31.28125 C 5.640625 31.152344 5.796875 31.085938 5.976562 31.085938 L 15.226562 31.085938 C 15.410156 31.085938 15.566406 31.152344 15.695312 31.28125 C 15.824219 31.410156 15.886719 31.566406 15.886719 31.746094 C 15.886719 31.929688 15.824219 32.085938 15.695312 32.214844 C 15.566406 32.34375 15.410156 32.40625 15.226562 32.40625 Z M 15.226562 32.40625 " fill-opacity="1" fill-rule="nonzero"/><path fill="#ffffff" d="M 20.511719 31.085938 L 22.496094 31.085938 C 22.679688 31.085938 22.832031 31.023438 22.960938 30.894531 C 23.089844 30.765625 23.15625 30.609375 23.15625 30.425781 C 23.15625 30.242188 23.089844 30.085938 22.960938 29.957031 C 22.832031 29.828125 22.679688 29.765625 22.496094 29.765625 L 20.511719 29.765625 C 20.25 29.765625 19.996094 29.816406 19.753906 29.914062 C 19.511719 30.015625 19.296875 30.160156 19.113281 30.34375 C 18.925781 30.53125 18.78125 30.746094 18.683594 30.988281 C 18.582031 31.230469 18.53125 31.484375 18.53125 31.746094 C 18.53125 32.011719 18.582031 32.261719 18.683594 32.503906 C 18.78125 32.75 18.925781 32.960938 19.113281 33.148438 C 19.296875 33.335938 19.511719 33.476562 19.753906 33.578125 C 19.996094 33.679688 20.25 33.730469 20.511719 33.730469 L 22.496094 33.730469 C 22.679688 33.730469 22.832031 33.664062 22.960938 33.535156 C 23.089844 33.40625 23.15625 33.25 23.15625 33.070312 C 23.15625 32.886719 23.089844 32.730469 22.960938 32.601562 C 22.832031 32.472656 22.679688 32.40625 22.496094 32.40625 L 20.511719 32.40625 C 20.332031 32.40625 20.175781 32.34375 20.046875 32.214844 C 19.917969 32.085938 19.851562 31.929688 19.851562 31.746094 C 19.851562 31.566406 19.917969 31.410156 20.046875 31.28125 C 20.175781 31.152344 20.332031 31.085938 20.511719 31.085938 Z M 20.511719 31.085938 " fill-opacity="1" fill-rule="nonzero"/><g clip-path="url(#a7e99bde2b)"><path fill="#ffffff" d="M 43.636719 25.527344 L 43.25 25.140625 C 43.035156 24.933594 42.789062 24.777344 42.515625 24.667969 C 42.238281 24.554688 41.953125 24.5 41.65625 24.5 C 41.359375 24.5 41.070312 24.554688 40.796875 24.667969 C 40.519531 24.777344 40.277344 24.933594 40.0625 25.140625 L 32.40625 32.792969 C 32.222656 32.972656 32 33.058594 31.746094 33.058594 C 31.488281 33.058594 31.269531 32.972656 31.085938 32.792969 L 28.054688 29.765625 C 27.839844 29.558594 27.59375 29.402344 27.320312 29.292969 C 27.042969 29.179688 26.757812 29.125 26.460938 29.125 C 26.164062 29.125 25.875 29.179688 25.601562 29.292969 C 25.324219 29.402344 25.078125 29.558594 24.863281 29.765625 L 24.476562 30.152344 C 24.265625 30.363281 24.101562 30.605469 23.988281 30.882812 C 23.875 31.160156 23.816406 31.449219 23.816406 31.746094 C 23.816406 32.046875 23.875 32.332031 23.988281 32.609375 C 24.101562 32.886719 24.265625 33.128906 24.476562 33.34375 L 29.023438 37.886719 C 29.382812 38.246094 29.800781 38.527344 30.273438 38.722656 C 30.742188 38.917969 31.234375 39.015625 31.746094 39.015625 C 32.253906 39.015625 32.746094 38.917969 33.21875 38.722656 C 33.691406 38.527344 34.105469 38.246094 34.46875 37.886719 L 43.636719 28.71875 C 43.847656 28.503906 44.011719 28.261719 44.125 27.984375 C 44.242188 27.710938 44.296875 27.421875 44.296875 27.121094 C 44.296875 26.824219 44.242188 26.535156 44.125 26.257812 C 44.011719 25.984375 43.847656 25.738281 43.636719 25.527344 Z M 42.703125 27.78125 L 33.535156 36.953125 C 33.296875 37.191406 33.023438 37.371094 32.714844 37.5 C 32.402344 37.628906 32.082031 37.691406 31.746094 37.691406 C 31.410156 37.691406 31.085938 37.628906 30.777344 37.5 C 30.46875 37.371094 30.195312 37.191406 29.957031 36.953125 L 25.410156 32.40625 C 25.230469 32.226562 25.136719 32.003906 25.136719 31.746094 C 25.136719 31.488281 25.230469 31.269531 25.410156 31.085938 L 25.800781 30.699219 C 25.980469 30.515625 26.203125 30.425781 26.460938 30.425781 C 26.71875 30.425781 26.9375 30.515625 27.121094 30.699219 L 30.148438 33.730469 C 30.363281 33.933594 30.609375 34.09375 30.886719 34.203125 C 31.160156 34.3125 31.449219 34.367188 31.746094 34.367188 C 32.042969 34.367188 32.328125 34.3125 32.605469 34.203125 C 32.878906 34.09375 33.125 33.933594 33.339844 33.730469 L 40.996094 26.074219 C 41.179688 25.898438 41.398438 25.808594 41.65625 25.808594 C 41.910156 25.808594 42.132812 25.898438 42.316406 26.074219 L 42.703125 26.460938 C 42.886719 26.644531 42.976562 26.863281 42.976562 27.121094 C 42.976562 27.378906 42.886719 27.601562 42.703125 27.78125 Z M 42.703125 27.78125 " fill-opacity="1" fill-rule="nonzero"/></g></svg>