<svg xmlns="http://www.w3.org/2000/svg" xmlns:xlink="http://www.w3.org/1999/xlink" width="60" zoomAndPan="magnify" viewBox="0 0 45 44.999999" height="60" preserveAspectRatio="xMidYMid meet" version="1.0"><defs><clipPath id="aba12b68f7"><path d="M 0.878906 1.339844 L 44.378906 1.339844 L 44.378906 43.339844 L 0.878906 43.339844 Z M 0.878906 1.339844 " clip-rule="nonzero"/></clipPath></defs><g clip-path="url(#aba12b68f7)"><path fill="#01915a" d="M 3.820312 32.832031 C 3.847656 31.652344 5.601562 31.652344 5.617188 32.832031 C 5.601562 34.011719 3.835938 34.011719 3.820312 32.832031 Z M 8.773438 33.730469 C 9.949219 33.707031 9.949219 31.949219 8.773438 31.933594 C 7.585938 31.949219 7.585938 33.714844 8.773438 33.730469 Z M 21.363281 18.171875 L 21.363281 20.953125 C 21.363281 21.480469 20.929688 21.910156 20.40625 21.910156 L 19.117188 21.910156 C 19.039062 22.113281 18.957031 22.316406 18.863281 22.511719 C 19.3125 23.023438 20.101562 23.523438 20.058594 24.105469 C 20.058594 24.363281 19.957031 24.609375 19.777344 24.785156 L 17.8125 26.753906 C 17.453125 27.125 16.808594 27.125 16.453125 26.753906 C 16.453125 26.753906 15.511719 25.8125 15.511719 25.8125 C 15.328125 25.894531 15.132812 25.972656 14.9375 26.050781 L 14.9375 27.386719 C 14.9375 27.914062 14.503906 28.347656 13.980469 28.347656 L 11.199219 28.347656 C 10.671875 28.347656 10.238281 27.914062 10.238281 27.386719 L 10.238281 26.023438 C 10.054688 25.957031 9.867188 25.878906 9.6875 25.792969 L 8.722656 26.761719 C 8.347656 27.132812 7.738281 27.132812 7.363281 26.761719 L 5.398438 24.792969 C 5.023438 24.4375 5.023438 23.792969 5.398438 23.4375 C 5.398438 23.4375 6.363281 22.472656 6.363281 22.472656 C 6.28125 22.292969 6.203125 22.105469 6.136719 21.917969 L 4.777344 21.917969 C 4.253906 21.917969 3.820312 21.488281 3.820312 20.960938 L 3.820312 18.179688 C 3.820312 17.65625 4.253906 17.222656 4.777344 17.222656 L 6.117188 17.222656 C 6.1875 17.027344 6.261719 16.832031 6.355469 16.644531 L 5.414062 15.703125 C 5.042969 15.347656 5.042969 14.703125 5.414062 14.347656 C 5.414062 14.347656 7.382812 12.382812 7.382812 12.382812 C 7.753906 12.007812 8.367188 12.007812 8.738281 12.382812 L 9.65625 13.296875 C 9.847656 13.203125 10.054688 13.117188 10.257812 13.042969 L 10.257812 11.753906 C 10.257812 11.226562 10.6875 10.796875 11.214844 10.796875 L 13.996094 10.796875 C 14.519531 10.796875 14.953125 11.226562 14.953125 11.753906 L 14.953125 13.015625 C 15.164062 13.09375 15.378906 13.179688 15.582031 13.269531 L 16.472656 12.382812 C 16.828125 12.007812 17.472656 12.007812 17.828125 12.382812 C 17.828125 12.382812 19.796875 14.347656 19.796875 14.347656 C 19.972656 14.527344 20.074219 14.773438 20.074219 15.027344 C 20.117188 15.613281 19.320312 16.113281 18.90625 16.59375 C 18.996094 16.796875 19.082031 17.011719 19.160156 17.222656 L 20.421875 17.222656 C 20.941406 17.214844 21.363281 17.636719 21.363281 18.171875 Z M 20.464844 18.171875 C 20.464844 18.136719 20.4375 18.113281 20.40625 18.113281 L 18.480469 18.113281 C 18.320312 17.527344 18.089844 16.941406 17.785156 16.417969 L 19.140625 15.058594 C 19.160156 15.042969 19.160156 15 19.140625 14.976562 L 17.175781 13.007812 L 17.089844 13.007812 L 15.734375 14.363281 C 15.207031 14.058594 14.621094 13.824219 14.039062 13.667969 L 14.039062 11.746094 C 14.039062 11.710938 14.011719 11.6875 13.980469 11.6875 L 11.199219 11.6875 C 11.164062 11.6875 11.136719 11.710938 11.136719 11.746094 L 11.136719 13.6875 C 10.5625 13.847656 9.984375 14.09375 9.46875 14.390625 L 8.085938 13.007812 C 8.058594 12.984375 8.027344 12.984375 8 13.007812 L 6.035156 14.976562 C 6.015625 14.992188 6.015625 15.035156 6.035156 15.058594 L 7.441406 16.46875 C 7.152344 16.984375 6.925781 17.554688 6.773438 18.121094 L 4.777344 18.121094 C 4.746094 18.121094 4.71875 18.148438 4.71875 18.179688 L 4.71875 20.960938 C 4.71875 20.996094 4.746094 21.019531 4.777344 21.019531 L 6.796875 21.019531 C 6.957031 21.582031 7.1875 22.132812 7.476562 22.640625 L 6.042969 24.074219 C 6.023438 24.089844 6.023438 24.132812 6.042969 24.15625 L 8.007812 26.109375 C 8.035156 26.132812 8.070312 26.132812 8.09375 26.109375 L 9.527344 24.675781 C 10.035156 24.964844 10.585938 25.199219 11.148438 25.355469 L 11.148438 27.371094 C 11.148438 27.40625 11.171875 27.429688 11.207031 27.429688 L 13.988281 27.429688 C 14.019531 27.429688 14.046875 27.40625 14.046875 27.371094 L 14.046875 25.371094 C 14.613281 25.21875 15.183594 24.988281 15.699219 24.699219 L 17.105469 26.101562 L 17.191406 26.101562 L 19.160156 24.132812 C 19.175781 24.117188 19.175781 24.074219 19.160156 24.046875 L 17.777344 22.664062 C 18.082031 22.148438 18.320312 21.570312 18.480469 20.996094 L 20.421875 20.996094 C 20.457031 20.996094 20.480469 20.96875 20.480469 20.9375 L 20.480469 18.171875 Z M 16.625 19.519531 C 16.625 21.726562 14.835938 23.515625 12.628906 23.515625 C 7.339844 23.300781 7.339844 15.738281 12.628906 15.535156 C 14.828125 15.535156 16.625 17.324219 16.625 19.519531 Z M 15.726562 19.519531 C 15.726562 17.816406 14.335938 16.425781 12.628906 16.425781 C 8.542969 16.570312 8.542969 22.460938 12.628906 22.605469 C 14.335938 22.613281 15.726562 21.222656 15.726562 19.519531 Z M 44.121094 5.25 L 44.121094 26.675781 C 44.121094 27.09375 43.78125 27.441406 43.359375 27.441406 L 41.363281 27.441406 L 41.363281 33.390625 C 41.363281 34.578125 40.398438 35.535156 39.21875 35.535156 L 24.050781 35.535156 L 25.398438 40.039062 L 26.96875 40.039062 C 27.960938 40.039062 28.765625 40.84375 28.765625 41.835938 C 28.765625 42.828125 27.960938 43.632812 26.96875 43.632812 L 15.265625 43.632812 C 14.273438 43.632812 13.46875 42.828125 13.46875 41.835938 C 13.46875 40.84375 14.273438 40.039062 15.265625 40.039062 L 16.84375 40.039062 L 18.191406 35.535156 L 3.015625 35.535156 C 1.835938 35.527344 0.878906 34.570312 0.878906 33.382812 L 0.878906 10.234375 C 0.878906 9.050781 1.835938 8.089844 3.023438 8.089844 L 27.027344 8.089844 L 27.027344 5.25 C 27.027344 4.835938 27.367188 4.488281 27.789062 4.488281 L 30.851562 4.488281 L 30.851562 3.816406 C 30.851562 3.445312 31.15625 3.140625 31.539062 3.140625 L 33.523438 3.140625 C 34.261719 1.359375 36.898438 1.359375 37.632812 3.140625 L 39.617188 3.140625 C 39.992188 3.140625 40.296875 3.445312 40.296875 3.816406 L 40.296875 4.488281 L 43.359375 4.488281 C 43.78125 4.488281 44.121094 4.828125 44.121094 5.25 Z M 31.75 5.835938 L 39.398438 5.835938 L 39.398438 4.039062 L 36.964844 4.039062 C 36.703125 2.230469 34.453125 2.242188 34.183594 4.039062 L 31.75 4.039062 Z M 15.277344 40.929688 C 14.097656 40.945312 14.089844 42.710938 15.277344 42.726562 C 15.277344 42.726562 26.976562 42.726562 26.976562 42.726562 C 28.15625 42.710938 28.164062 40.945312 26.976562 40.929688 C 26.96875 40.929688 15.277344 40.929688 15.277344 40.929688 Z M 23.109375 35.527344 L 19.125 35.527344 L 17.777344 40.03125 L 24.449219 40.03125 Z M 40.464844 31.035156 L 1.777344 31.035156 L 1.777344 33.382812 C 1.777344 34.070312 2.335938 34.628906 3.015625 34.628906 L 39.21875 34.628906 C 39.90625 34.628906 40.464844 34.070312 40.464844 33.382812 Z M 40.464844 27.429688 L 27.78125 27.429688 C 27.367188 27.429688 27.019531 27.09375 27.019531 26.667969 L 27.019531 8.988281 L 3.023438 8.988281 C 2.335938 8.988281 1.785156 9.550781 1.785156 10.234375 L 1.785156 30.136719 L 40.476562 30.136719 L 40.476562 27.429688 Z M 43.222656 5.386719 L 40.296875 5.386719 L 40.296875 6.054688 C 40.296875 6.429688 39.992188 6.734375 39.617188 6.734375 L 31.539062 6.734375 C 31.15625 6.734375 30.851562 6.429688 30.851562 6.054688 L 30.851562 5.386719 L 27.925781 5.386719 L 27.925781 26.53125 L 43.222656 26.53125 Z M 29.910156 10.335938 C 29.910156 10.582031 30.113281 10.785156 30.359375 10.785156 L 41.152344 10.785156 C 41.398438 10.785156 41.601562 10.582031 41.601562 10.335938 C 41.601562 10.089844 41.398438 9.886719 41.152344 9.886719 L 30.359375 9.886719 C 30.113281 9.886719 29.910156 10.089844 29.910156 10.335938 Z M 41.160156 13.484375 L 30.359375 13.484375 C 29.773438 13.484375 29.765625 14.382812 30.359375 14.382812 C 30.359375 14.382812 41.152344 14.382812 41.152344 14.382812 C 41.746094 14.382812 41.753906 13.492188 41.160156 13.484375 Z M 41.160156 17.085938 L 30.359375 17.085938 C 29.773438 17.085938 29.765625 17.984375 30.359375 17.984375 C 30.359375 17.984375 41.152344 17.984375 41.152344 17.984375 C 41.746094 17.984375 41.753906 17.085938 41.160156 17.085938 Z M 41.160156 20.683594 L 30.359375 20.683594 C 29.773438 20.683594 29.765625 21.582031 30.359375 21.582031 C 30.359375 21.582031 41.152344 21.582031 41.152344 21.582031 C 41.746094 21.582031 41.753906 20.691406 41.160156 20.683594 Z M 41.160156 20.683594 " fill-opacity="1" fill-rule="nonzero"/></g></svg>