<svg xmlns="http://www.w3.org/2000/svg" xmlns:xlink="http://www.w3.org/1999/xlink" width="40" zoomAndPan="magnify" viewBox="0 0 30 30.000001" height="40" preserveAspectRatio="xMidYMid meet" version="1.0"><defs><clipPath id="cf0d43d7be"><path d="M 1.425781 0.945312 L 28.28125 0.945312 L 28.28125 27.796875 L 1.425781 27.796875 Z M 1.425781 0.945312 " clip-rule="nonzero"/></clipPath></defs><path fill="#01915a" d="M 15 6.914062 C 13.199219 6.914062 11.742188 8.375 11.742188 10.171875 C 11.742188 11.972656 13.199219 13.429688 15 13.429688 C 16.796875 13.429688 18.257812 11.972656 18.257812 10.171875 C 18.257812 8.375 16.796875 6.914062 15 6.914062 " fill-opacity="1" fill-rule="nonzero"/><g clip-path="url(#cf0d43d7be)"><path fill="#01915a" d="M 15 22.824219 C 15 22.824219 8.882812 14.503906 8.882812 11.125 C 8.882812 7.75 11.621094 5.011719 15 5.011719 C 18.375 5.011719 21.113281 7.75 21.113281 11.125 C 21.113281 14.503906 15 22.824219 15 22.824219 Z M 15 0.945312 C 7.503906 0.945312 1.429688 7.019531 1.429688 14.515625 C 1.429688 22.011719 7.503906 28.085938 15 28.085938 C 22.492188 28.085938 28.570312 22.011719 28.570312 14.515625 C 28.570312 7.019531 22.492188 0.945312 15 0.945312 " fill-opacity="1" fill-rule="nonzero"/></g></svg>