<svg xmlns="http://www.w3.org/2000/svg" xmlns:xlink="http://www.w3.org/1999/xlink" width="40" zoomAndPan="magnify" viewBox="0 0 30 30.000001" height="40" preserveAspectRatio="xMidYMid meet" version="1.0"><defs><clipPath id="ef4f50aa6a"><path d="M 1.425781 0.945312 L 28.28125 0.945312 L 28.28125 27.796875 L 1.425781 27.796875 Z M 1.425781 0.945312 " clip-rule="nonzero"/></clipPath></defs><path fill="#100f0d" d="M 14.855469 6.851562 C 13.078125 6.851562 11.632812 8.296875 11.632812 10.074219 C 11.632812 11.855469 13.078125 13.300781 14.855469 13.300781 C 16.636719 13.300781 18.082031 11.855469 18.082031 10.074219 C 18.082031 8.296875 16.636719 6.851562 14.855469 6.851562 " fill-opacity="1" fill-rule="nonzero"/><g clip-path="url(#ef4f50aa6a)"><path fill="#100f0d" d="M 14.855469 22.597656 C 14.855469 22.597656 8.804688 14.363281 8.804688 11.019531 C 8.804688 7.679688 11.515625 4.96875 14.855469 4.96875 C 18.199219 4.96875 20.910156 7.679688 20.910156 11.019531 C 20.910156 14.363281 14.855469 22.597656 14.855469 22.597656 Z M 14.855469 0.945312 C 7.441406 0.945312 1.429688 6.957031 1.429688 14.375 C 1.429688 21.789062 7.441406 27.800781 14.855469 27.800781 C 22.273438 27.800781 28.285156 21.789062 28.285156 14.375 C 28.285156 6.957031 22.273438 0.945312 14.855469 0.945312 " fill-opacity="1" fill-rule="nonzero"/></g></svg>