<svg xmlns="http://www.w3.org/2000/svg" xmlns:xlink="http://www.w3.org/1999/xlink" width="40" zoomAndPan="magnify" viewBox="0 0 30 30.000001" height="40" preserveAspectRatio="xMidYMid meet" version="1.0"><defs><clipPath id="b98fb3be77"><path d="M 1.425781 0.945312 L 28.28125 0.945312 L 28.28125 27.796875 L 1.425781 27.796875 Z M 1.425781 0.945312 " clip-rule="nonzero"/></clipPath></defs><path fill="#000000" d="M 14.371094 13.644531 C 14.511719 13.757812 14.675781 13.8125 14.855469 13.8125 C 15.035156 13.8125 15.195312 13.757812 15.339844 13.644531 L 19.160156 10.628906 L 19.886719 10.066406 L 9.832031 10.066406 L 10.683594 10.738281 Z M 14.371094 13.644531 " fill-opacity="1" fill-rule="nonzero"/><path fill="#000000" d="M 14.855469 15.382812 C 14.3125 15.382812 13.828125 15.210938 13.40625 14.871094 L 8.355469 10.890625 L 8.355469 17.898438 C 8.355469 18.113281 8.433594 18.296875 8.585938 18.449219 C 8.734375 18.601562 8.917969 18.675781 9.132812 18.675781 L 20.574219 18.675781 C 20.789062 18.675781 20.972656 18.601562 21.125 18.449219 C 21.277344 18.296875 21.355469 18.113281 21.355469 17.898438 L 21.355469 10.890625 L 16.304688 14.871094 C 15.882812 15.210938 15.398438 15.382812 14.855469 15.382812 Z M 14.855469 15.382812 " fill-opacity="1" fill-rule="nonzero"/><g clip-path="url(#b98fb3be77)"><path fill="#000000" d="M 14.855469 0.945312 C 13.972656 0.945312 13.101562 1.03125 12.234375 1.203125 C 11.371094 1.375 10.53125 1.628906 9.714844 1.964844 C 8.902344 2.304688 8.128906 2.714844 7.394531 3.207031 C 6.660156 3.695312 5.984375 4.253906 5.359375 4.875 C 4.738281 5.5 4.179688 6.179688 3.691406 6.910156 C 3.199219 7.644531 2.785156 8.417969 2.449219 9.234375 C 2.113281 10.046875 1.859375 10.886719 1.683594 11.75 C 1.511719 12.617188 1.425781 13.488281 1.425781 14.371094 C 1.425781 15.253906 1.511719 16.125 1.683594 16.992188 C 1.859375 17.855469 2.113281 18.695312 2.449219 19.507812 C 2.785156 20.324219 3.199219 21.097656 3.691406 21.832031 C 4.179688 22.5625 4.738281 23.242188 5.359375 23.867188 C 5.984375 24.488281 6.660156 25.046875 7.394531 25.535156 C 8.128906 26.023438 8.902344 26.4375 9.714844 26.777344 C 10.53125 27.113281 11.371094 27.367188 12.234375 27.539062 C 13.101562 27.710938 13.972656 27.796875 14.855469 27.796875 C 15.738281 27.796875 16.609375 27.710938 17.472656 27.539062 C 18.339844 27.367188 19.179688 27.113281 19.992188 26.777344 C 20.808594 26.4375 21.582031 26.023438 22.316406 25.535156 C 23.046875 25.046875 23.726562 24.488281 24.347656 23.867188 C 24.972656 23.242188 25.53125 22.5625 26.019531 21.832031 C 26.507812 21.097656 26.921875 20.324219 27.261719 19.507812 C 27.597656 18.695312 27.851562 17.855469 28.023438 16.992188 C 28.195312 16.125 28.28125 15.253906 28.28125 14.371094 C 28.28125 13.488281 28.195312 12.617188 28.023438 11.75 C 27.851562 10.886719 27.597656 10.046875 27.257812 9.234375 C 26.921875 8.417969 26.507812 7.644531 26.019531 6.914062 C 25.527344 6.179688 24.972656 5.5 24.347656 4.878906 C 23.726562 4.253906 23.046875 3.699219 22.3125 3.207031 C 21.582031 2.71875 20.808594 2.304688 19.992188 1.96875 C 19.179688 1.628906 18.339844 1.375 17.472656 1.203125 C 16.609375 1.03125 15.738281 0.945312 14.855469 0.945312 Z M 22.910156 17.898438 C 22.910156 18.207031 22.851562 18.507812 22.734375 18.792969 C 22.613281 19.078125 22.445312 19.332031 22.226562 19.554688 C 22.007812 19.773438 21.757812 19.941406 21.46875 20.0625 C 21.183594 20.179688 20.886719 20.242188 20.574219 20.242188 L 9.132812 20.242188 C 8.824219 20.242188 8.527344 20.179688 8.238281 20.0625 C 7.953125 19.941406 7.703125 19.773438 7.480469 19.554688 C 7.261719 19.332031 7.09375 19.078125 6.976562 18.792969 C 6.859375 18.507812 6.796875 18.207031 6.796875 17.898438 L 6.796875 10.84375 C 6.796875 10.535156 6.859375 10.234375 6.976562 9.949219 C 7.09375 9.660156 7.261719 9.410156 7.480469 9.1875 C 7.703125 8.96875 7.953125 8.800781 8.238281 8.679688 C 8.527344 8.558594 8.824219 8.5 9.132812 8.5 L 20.574219 8.5 C 20.886719 8.5 21.183594 8.558594 21.46875 8.679688 C 21.757812 8.800781 22.007812 8.96875 22.226562 9.1875 C 22.445312 9.410156 22.613281 9.660156 22.734375 9.949219 C 22.851562 10.234375 22.910156 10.535156 22.910156 10.84375 Z M 22.910156 17.898438 " fill-opacity="1" fill-rule="nonzero"/></g></svg>