<svg xmlns="http://www.w3.org/2000/svg" xmlns:xlink="http://www.w3.org/1999/xlink" width="40" zoomAndPan="magnify" viewBox="0 0 30 30.000001" height="40" preserveAspectRatio="xMidYMid meet" version="1.0"><defs><clipPath id="22272ba27f"><path d="M 1.425781 0.945312 L 28.28125 0.945312 L 28.28125 27.796875 L 1.425781 27.796875 Z M 1.425781 0.945312 " clip-rule="nonzero"/></clipPath></defs><path fill="#01915a" d="M 14.507812 13.78125 C 14.652344 13.894531 14.8125 13.949219 14.996094 13.949219 C 15.179688 13.949219 15.34375 13.894531 15.484375 13.78125 L 19.347656 10.730469 L 20.082031 10.160156 L 9.921875 10.160156 L 10.78125 10.839844 Z M 14.507812 13.78125 " fill-opacity="1" fill-rule="nonzero"/><path fill="#01915a" d="M 14.996094 15.535156 C 14.449219 15.535156 13.960938 15.363281 13.53125 15.019531 L 8.429688 10.992188 L 8.429688 18.078125 C 8.429688 18.292969 8.507812 18.480469 8.660156 18.632812 C 8.8125 18.785156 9 18.863281 9.214844 18.863281 L 20.777344 18.863281 C 20.996094 18.863281 21.179688 18.785156 21.332031 18.632812 C 21.488281 18.480469 21.5625 18.292969 21.5625 18.078125 L 21.5625 10.992188 L 16.460938 15.019531 C 16.035156 15.363281 15.546875 15.535156 14.996094 15.535156 Z M 14.996094 15.535156 " fill-opacity="1" fill-rule="nonzero"/><g clip-path="url(#22272ba27f)"><path fill="#01915a" d="M 14.996094 0.945312 C 14.105469 0.945312 13.222656 1.03125 12.347656 1.203125 C 11.476562 1.378906 10.628906 1.636719 9.804688 1.976562 C 8.980469 2.316406 8.199219 2.734375 7.457031 3.230469 C 6.71875 3.726562 6.03125 4.289062 5.402344 4.917969 C 4.773438 5.546875 4.210938 6.234375 3.714844 6.972656 C 3.21875 7.714844 2.800781 8.496094 2.460938 9.320312 C 2.121094 10.144531 1.863281 10.992188 1.6875 11.867188 C 1.515625 12.738281 1.425781 13.621094 1.425781 14.511719 C 1.425781 15.402344 1.515625 16.285156 1.6875 17.160156 C 1.863281 18.035156 2.121094 18.882812 2.460938 19.707031 C 2.800781 20.527344 3.21875 21.3125 3.714844 22.050781 C 4.210938 22.792969 4.773438 23.476562 5.402344 24.109375 C 6.03125 24.738281 6.71875 25.300781 7.457031 25.796875 C 8.199219 26.289062 8.980469 26.707031 9.804688 27.050781 C 10.628906 27.390625 11.476562 27.648438 12.347656 27.820312 C 13.222656 27.996094 14.105469 28.082031 14.996094 28.082031 C 15.886719 28.082031 16.769531 27.996094 17.644531 27.820312 C 18.519531 27.648438 19.367188 27.390625 20.1875 27.050781 C 21.011719 26.707031 21.792969 26.289062 22.535156 25.796875 C 23.277344 25.300781 23.960938 24.738281 24.589844 24.109375 C 25.222656 23.476562 25.785156 22.792969 26.277344 22.050781 C 26.773438 21.3125 27.191406 20.527344 27.53125 19.707031 C 27.875 18.882812 28.132812 18.035156 28.304688 17.160156 C 28.480469 16.285156 28.566406 15.402344 28.566406 14.511719 C 28.566406 13.621094 28.476562 12.738281 28.304688 11.867188 C 28.128906 10.992188 27.871094 10.144531 27.53125 9.320312 C 27.191406 8.496094 26.773438 7.714844 26.277344 6.976562 C 25.78125 6.234375 25.21875 5.550781 24.589844 4.917969 C 23.960938 4.289062 23.273438 3.726562 22.535156 3.230469 C 21.792969 2.738281 21.011719 2.320312 20.1875 1.976562 C 19.367188 1.636719 18.515625 1.378906 17.644531 1.207031 C 16.769531 1.03125 15.886719 0.945312 14.996094 0.945312 Z M 23.136719 18.078125 C 23.136719 18.390625 23.078125 18.691406 22.957031 18.980469 C 22.839844 19.273438 22.667969 19.527344 22.445312 19.75 C 22.226562 19.972656 21.96875 20.144531 21.679688 20.265625 C 21.390625 20.382812 21.089844 20.445312 20.777344 20.445312 L 9.214844 20.445312 C 8.902344 20.445312 8.601562 20.382812 8.3125 20.265625 C 8.023438 20.144531 7.765625 19.972656 7.546875 19.75 C 7.324219 19.527344 7.15625 19.273438 7.035156 18.980469 C 6.914062 18.691406 6.855469 18.390625 6.855469 18.078125 L 6.855469 10.949219 C 6.855469 10.636719 6.914062 10.332031 7.035156 10.042969 C 7.15625 9.753906 7.324219 9.5 7.546875 9.277344 C 7.765625 9.054688 8.023438 8.882812 8.3125 8.761719 C 8.601562 8.640625 8.902344 8.578125 9.214844 8.578125 L 20.777344 8.578125 C 21.089844 8.578125 21.390625 8.640625 21.679688 8.761719 C 21.96875 8.882812 22.226562 9.054688 22.445312 9.277344 C 22.667969 9.5 22.839844 9.753906 22.957031 10.042969 C 23.078125 10.332031 23.136719 10.636719 23.136719 10.949219 Z M 23.136719 18.078125 " fill-opacity="1" fill-rule="nonzero"/></g></svg>