<svg xmlns="http://www.w3.org/2000/svg" xmlns:xlink="http://www.w3.org/1999/xlink" width="60" zoomAndPan="magnify" viewBox="0 0 45 44.999999" height="60" preserveAspectRatio="xMidYMid meet" version="1.0"><defs><clipPath id="d2c05835b8"><path d="M 0.875 3.253906 L 44.125 3.253906 L 44.125 34 L 0.875 34 Z M 0.875 3.253906 " clip-rule="nonzero"/></clipPath><clipPath id="7e358eaa69"><path d="M 13 34 L 32 34 L 32 41.457031 L 13 41.457031 Z M 13 34 " clip-rule="nonzero"/></clipPath><clipPath id="cad4cefec1"><path d="M 10.917969 24.304688 L 14.675781 24.304688 L 14.675781 25.933594 L 10.917969 25.933594 Z M 10.917969 24.304688 " clip-rule="nonzero"/></clipPath><clipPath id="b4b455e053"><path d="M 5.199219 8.648438 L 20.335938 8.648438 L 20.335938 23.679688 L 5.199219 23.679688 Z M 5.199219 8.648438 " clip-rule="nonzero"/></clipPath><clipPath id="1cb579d3a3"><path d="M 23.375 18 L 39 18 L 39 23.789062 L 23.375 23.789062 Z M 23.375 18 " clip-rule="nonzero"/></clipPath><clipPath id="76a9bef971"><path d="M 23.375 13 L 30 13 L 30 23 L 23.375 23 Z M 23.375 13 " clip-rule="nonzero"/></clipPath><clipPath id="3b6af5a353"><path d="M 23.375 13 L 39 13 L 39 23 L 23.375 23 Z M 23.375 13 " clip-rule="nonzero"/></clipPath><clipPath id="5545ee72a0"><path d="M 23.375 12 L 39 12 L 39 20 L 23.375 20 Z M 23.375 12 " clip-rule="nonzero"/></clipPath><clipPath id="e2c2525e5d"><path d="M 34.964844 10.816406 L 41.398438 10.816406 L 41.398438 17.488281 L 34.964844 17.488281 Z M 34.964844 10.816406 " clip-rule="nonzero"/></clipPath><clipPath id="6ae02ffd30"><path d="M 41.644531 14.148438 C 41.644531 15.992188 40.152344 17.484375 38.308594 17.484375 C 36.46875 17.484375 34.972656 15.992188 34.972656 14.148438 C 34.972656 12.308594 36.46875 10.816406 38.308594 10.816406 C 40.152344 10.816406 41.644531 12.308594 41.644531 14.148438 Z M 41.644531 14.148438 " clip-rule="nonzero"/></clipPath><clipPath id="f94d03c1fe"><path d="M 41.644531 14.148438 C 41.644531 15.992188 40.152344 17.484375 38.308594 17.484375 C 36.46875 17.484375 34.972656 15.992188 34.972656 14.148438 C 34.972656 12.308594 36.46875 10.816406 38.308594 10.816406 C 40.152344 10.816406 41.644531 12.308594 41.644531 14.148438 " clip-rule="nonzero"/></clipPath><clipPath id="2f07ab845c"><path d="M 38.226562 20.820312 L 44.976562 14.230469 L 38.390625 7.480469 L 31.640625 14.066406 Z M 38.226562 20.820312 " clip-rule="nonzero"/></clipPath><linearGradient x1="-0.186425" gradientTransform="matrix(-4.626427, -4.741042, 4.741042, -4.626427, 40.61953, 16.517582)" y1="0" x2="1.211324" gradientUnits="userSpaceOnUse" y2="0" id="a65d70d7b3"><stop stop-opacity="1" stop-color="rgb(85.899353%, 1.998901%, 0%)" offset="0"/><stop stop-opacity="1" stop-color="rgb(85.899353%, 1.998901%, 0%)" offset="0.125"/><stop stop-opacity="1" stop-color="rgb(85.900879%, 2.001953%, 0.00152588%)" offset="0.140625"/><stop stop-opacity="1" stop-color="rgb(86.096191%, 2.19574%, 0.195312%)" offset="0.148438"/><stop stop-opacity="1" stop-color="rgb(86.479187%, 2.392578%, 0.393677%)" offset="0.15625"/><stop stop-opacity="1" stop-color="rgb(86.863708%, 2.531433%, 0.576782%)" offset="0.164062"/><stop stop-opacity="1" stop-color="rgb(87.077332%, 2.682495%, 0.776672%)" offset="0.171875"/><stop stop-opacity="1" stop-color="rgb(87.283325%, 2.883911%, 0.984192%)" offset="0.179688"/><stop stop-opacity="1" stop-color="rgb(87.617493%, 3.083801%, 1.184082%)" offset="0.1875"/><stop stop-opacity="1" stop-color="rgb(87.782288%, 3.269958%, 1.368713%)" offset="0.195312"/><stop stop-opacity="1" stop-color="rgb(87.960815%, 3.469849%, 1.568604%)" offset="0.203125"/><stop stop-opacity="1" stop-color="rgb(88.314819%, 3.652954%, 1.753235%)" offset="0.210938"/><stop stop-opacity="1" stop-color="rgb(88.719177%, 3.852844%, 1.953125%)" offset="0.214844"/><stop stop-opacity="1" stop-color="rgb(88.9328%, 3.898621%, 1.998901%)" offset="0.21875"/><stop stop-opacity="1" stop-color="rgb(88.96637%, 4.06189%, 2.16217%)" offset="0.226562"/><stop stop-opacity="1" stop-color="rgb(89.154053%, 4.26178%, 2.362061%)" offset="0.234375"/><stop stop-opacity="1" stop-color="rgb(89.500427%, 4.446411%, 2.508545%)" offset="0.242188"/><stop stop-opacity="1" stop-color="rgb(89.746094%, 4.646301%, 2.658081%)" offset="0.25"/><stop stop-opacity="1" stop-color="rgb(89.94751%, 4.847717%, 2.84729%)" offset="0.257813"/><stop stop-opacity="1" stop-color="rgb(90.29541%, 5.047607%, 3.04718%)" offset="0.261719"/><stop stop-opacity="1" stop-color="rgb(90.493774%, 5.099487%, 3.09906%)" offset="0.265625"/><stop stop-opacity="1" stop-color="rgb(90.67688%, 5.229187%, 3.230286%)" offset="0.28125"/><stop stop-opacity="1" stop-color="rgb(91.044617%, 5.543518%, 3.544617%)" offset="0.296875"/><stop stop-opacity="1" stop-color="rgb(91.435242%, 5.813599%, 3.813171%)" offset="0.300781"/><stop stop-opacity="1" stop-color="rgb(91.642761%, 5.899048%, 3.898621%)" offset="0.304688"/><stop stop-opacity="1" stop-color="rgb(91.720581%, 6.022644%, 4.022217%)" offset="0.3125"/><stop stop-opacity="1" stop-color="rgb(91.914368%, 6.222534%, 4.222107%)" offset="0.320312"/><stop stop-opacity="1" stop-color="rgb(92.114258%, 6.298828%, 4.299927%)" offset="0.328125"/><stop stop-opacity="1" stop-color="rgb(92.272949%, 6.39801%, 4.397583%)" offset="0.335937"/><stop stop-opacity="1" stop-color="rgb(92.526245%, 6.5979%, 4.597473%)" offset="0.34375"/><stop stop-opacity="1" stop-color="rgb(92.802429%, 6.80542%, 4.806519%)" offset="0.351562"/><stop stop-opacity="1" stop-color="rgb(92.997742%, 7.006836%, 5.006409%)" offset="0.359375"/><stop stop-opacity="1" stop-color="rgb(93.281555%, 7.182312%, 5.181885%)" offset="0.375"/><stop stop-opacity="1" stop-color="rgb(93.582153%, 7.382202%, 5.381775%)" offset="0.382812"/><stop stop-opacity="1" stop-color="rgb(93.791199%, 7.499695%, 5.499268%)" offset="0.390625"/><stop stop-opacity="1" stop-color="rgb(93.991089%, 7.562256%, 5.581665%)" offset="0.398437"/><stop stop-opacity="1" stop-color="rgb(94.174194%, 7.711792%, 5.781555%)" offset="0.40625"/><stop stop-opacity="1" stop-color="rgb(94.407654%, 7.832336%, 5.932617%)" offset="0.414063"/><stop stop-opacity="1" stop-color="rgb(94.662476%, 7.962036%, 6.062317%)" offset="0.421875"/><stop stop-opacity="1" stop-color="rgb(94.828796%, 8.128357%, 6.228638%)" offset="0.4375"/><stop stop-opacity="1" stop-color="rgb(95.024109%, 8.323669%, 6.42395%)" offset="0.453125"/><stop stop-opacity="1" stop-color="rgb(95.248413%, 8.547974%, 6.648254%)" offset="0.460937"/><stop stop-opacity="1" stop-color="rgb(95.448303%, 8.747864%, 6.848145%)" offset="0.46875"/><stop stop-opacity="1" stop-color="rgb(95.651245%, 8.924866%, 7.025146%)" offset="0.476563"/><stop stop-opacity="1" stop-color="rgb(95.846558%, 8.999634%, 7.099915%)" offset="0.484375"/><stop stop-opacity="1" stop-color="rgb(96.134949%, 9.112549%, 7.21283%)" offset="0.5"/><stop stop-opacity="1" stop-color="rgb(96.42334%, 9.312439%, 7.41272%)" offset="0.507812"/><stop stop-opacity="1" stop-color="rgb(96.621704%, 9.399414%, 7.499695%)" offset="0.515625"/><stop stop-opacity="1" stop-color="rgb(96.810913%, 9.509277%, 7.582092%)" offset="0.53125"/><stop stop-opacity="1" stop-color="rgb(97.000122%, 9.709167%, 7.731628%)" offset="0.546875"/><stop stop-opacity="1" stop-color="rgb(97.27478%, 9.898376%, 7.897949%)" offset="0.5625"/><stop stop-opacity="1" stop-color="rgb(97.621155%, 10.098267%, 8.097839%)" offset="0.578125"/><stop stop-opacity="1" stop-color="rgb(97.897339%, 10.295105%, 8.294678%)" offset="0.59375"/><stop stop-opacity="1" stop-color="rgb(98.092651%, 10.494995%, 8.494568%)" offset="0.609375"/><stop stop-opacity="1" stop-color="rgb(98.292542%, 10.598755%, 8.599854%)" offset="0.625"/><stop stop-opacity="1" stop-color="rgb(98.48175%, 10.681152%, 8.682251%)" offset="0.640625"/><stop stop-opacity="1" stop-color="rgb(98.681641%, 10.881042%, 8.882141%)" offset="0.65625"/><stop stop-opacity="1" stop-color="rgb(98.832703%, 11.032104%, 9.033203%)" offset="0.6875"/><stop stop-opacity="1" stop-color="rgb(98.965454%, 11.166382%, 9.165955%)" offset="0.703125"/><stop stop-opacity="1" stop-color="rgb(99.163818%, 11.332703%, 9.332275%)" offset="0.71875"/><stop stop-opacity="1" stop-color="rgb(99.433899%, 11.402893%, 9.402466%)" offset="0.75"/><stop stop-opacity="1" stop-color="rgb(99.703979%, 11.503601%, 9.5047%)" offset="0.875"/><stop stop-opacity="1" stop-color="rgb(99.900818%, 11.700439%, 9.701538%)" offset="1"/></linearGradient></defs><g clip-path="url(#d2c05835b8)"><path fill="#01915a" d="M 42.328125 3.527344 L 2.671875 3.527344 C 1.65625 3.527344 0.875 4.304688 0.875 5.320312 L 0.875 32.097656 C 0.875 33.113281 1.65625 33.894531 2.671875 33.894531 L 42.328125 33.894531 C 43.34375 33.894531 44.125 33.113281 44.125 32.097656 L 44.125 5.320312 C 44.125 4.382812 43.34375 3.527344 42.328125 3.527344 Z M 42.328125 29.601562 L 2.671875 29.601562 L 2.671875 5.867188 L 42.328125 5.867188 Z M 42.328125 29.601562 " fill-opacity="1" fill-rule="nonzero"/></g><g clip-path="url(#7e358eaa69)"><path fill="#01915a" d="M 28.980469 34.519531 L 16.019531 34.519531 L 16.019531 38.578125 L 13.601562 38.578125 L 13.601562 41.46875 L 31.398438 41.46875 L 31.398438 38.578125 L 28.980469 38.578125 Z M 28.980469 34.519531 " fill-opacity="1" fill-rule="nonzero"/></g><g clip-path="url(#cad4cefec1)"><path fill="#01915a" d="M 12.785156 25.933594 C 13.640625 25.933594 14.363281 25.386719 14.632812 24.628906 C 14.6875 24.472656 14.578125 24.3125 14.414062 24.3125 L 11.15625 24.3125 C 10.996094 24.3125 10.882812 24.472656 10.9375 24.628906 C 11.207031 25.386719 11.933594 25.933594 12.785156 25.933594 " fill-opacity="1" fill-rule="nonzero"/></g><g clip-path="url(#b4b455e053)"><path fill="#01915a" d="M 20.1875 22.007812 L 19.691406 21.152344 C 19.160156 20.234375 18.882812 19.191406 18.882812 18.132812 L 18.882812 16.109375 C 18.882812 13.199219 16.839844 10.765625 14.109375 10.160156 L 14.109375 9.972656 C 14.109375 9.242188 13.515625 8.648438 12.785156 8.648438 C 12.054688 8.648438 11.464844 9.242188 11.464844 9.972656 L 11.464844 10.160156 C 8.734375 10.765625 6.691406 13.199219 6.691406 16.109375 L 6.691406 18.132812 C 6.691406 19.191406 6.410156 20.234375 5.878906 21.152344 L 5.386719 22.007812 C 4.90625 22.707031 5.410156 23.65625 6.257812 23.65625 L 19.316406 23.65625 C 20.164062 23.65625 20.664062 22.707031 20.1875 22.007812 " fill-opacity="1" fill-rule="nonzero"/></g><path fill="#ff1723" d="M 19.957031 12.046875 C 19.957031 13.640625 18.664062 14.929688 17.074219 14.929688 C 15.484375 14.929688 14.191406 13.640625 14.191406 12.046875 C 14.191406 10.457031 15.484375 9.167969 17.074219 9.167969 C 18.664062 9.167969 19.957031 10.457031 19.957031 12.046875 " fill-opacity="1" fill-rule="nonzero"/><path fill="#ffffff" d="M 17.519531 10.503906 L 17.519531 13.59375 L 16.75 13.59375 L 16.75 11.9375 C 16.75 11.699219 16.742188 11.554688 16.730469 11.507812 C 16.71875 11.457031 16.6875 11.421875 16.636719 11.394531 C 16.585938 11.371094 16.46875 11.359375 16.292969 11.359375 L 16.214844 11.359375 L 16.214844 11 C 16.589844 10.917969 16.871094 10.753906 17.066406 10.503906 L 17.519531 10.503906 " fill-opacity="1" fill-rule="nonzero"/><g clip-path="url(#1cb579d3a3)"><path fill="#01915a" d="M 38.757812 22.976562 C 38.398438 23.457031 37.828125 23.765625 37.183594 23.765625 L 25.332031 23.765625 C 24.691406 23.765625 24.121094 23.457031 23.761719 22.976562 L 29.175781 18.171875 L 29.21875 18.132812 L 29.421875 18.292969 L 31.257812 19.746094 L 33.097656 18.292969 L 33.300781 18.132812 L 33.34375 18.171875 L 38.757812 22.976562 " fill-opacity="1" fill-rule="nonzero"/></g><path fill="#01915a" d="M 39.144531 14.953125 L 39.144531 21.808594 C 39.144531 22.246094 39 22.648438 38.757812 22.976562 L 33.34375 18.171875 L 33.300781 18.132812 L 38.769531 13.804688 C 38.796875 13.839844 38.820312 13.875 38.839844 13.910156 C 39.03125 14.210938 39.144531 14.570312 39.144531 14.953125 " fill-opacity="1" fill-rule="nonzero"/><g clip-path="url(#76a9bef971)"><path fill="#01915a" d="M 29.21875 18.132812 L 29.175781 18.171875 L 23.761719 22.976562 C 23.519531 22.652344 23.375 22.246094 23.375 21.808594 L 23.375 14.953125 C 23.375 14.570312 23.488281 14.210938 23.675781 13.910156 C 23.699219 13.875 23.722656 13.839844 23.746094 13.804688 L 29.21875 18.132812 " fill-opacity="1" fill-rule="nonzero"/></g><g clip-path="url(#3b6af5a353)"><path fill="#ebebeb" d="M 33.890625 18.65625 C 33.855469 18.691406 33.835938 18.710938 33.835938 18.710938 C 33.835938 18.710938 37.621094 22.507812 37.5 22.621094 C 37.34375 22.765625 32.824219 19.449219 32.824219 19.449219 L 31.695312 20.277344 C 31.601562 20.34375 31.492188 20.386719 31.378906 20.402344 C 31.339844 20.40625 31.300781 20.40625 31.257812 20.40625 C 31.214844 20.40625 31.179688 20.40625 31.140625 20.402344 C 31.027344 20.386719 30.917969 20.34375 30.824219 20.277344 L 29.695312 19.449219 C 29.695312 19.449219 25.144531 22.734375 25.019531 22.621094 C 24.898438 22.507812 28.683594 18.710938 28.683594 18.710938 C 28.683594 18.710938 28.664062 18.691406 28.628906 18.65625 C 28.230469 18.265625 25.699219 15.757812 23.925781 13.945312 C 23.871094 13.890625 23.820312 13.835938 23.765625 13.78125 C 23.785156 13.757812 23.804688 13.730469 23.824219 13.707031 C 23.917969 13.59375 24.027344 13.488281 24.144531 13.398438 C 26.824219 15.449219 31.257812 19.101562 31.257812 19.101562 C 31.257812 19.101562 35.695312 15.449219 38.371094 13.398438 C 38.492188 13.488281 38.597656 13.59375 38.695312 13.707031 C 38.714844 13.730469 38.734375 13.757812 38.753906 13.78125 C 38.699219 13.835938 38.644531 13.890625 38.589844 13.949219 C 36.816406 15.757812 34.289062 18.265625 33.890625 18.65625 " fill-opacity="1" fill-rule="nonzero"/></g><g clip-path="url(#5545ee72a0)"><path fill="#01915a" d="M 38.769531 13.804688 L 38.589844 13.949219 L 33.300781 18.132812 L 33.097656 18.292969 L 31.257812 19.746094 L 29.421875 18.292969 L 29.21875 18.132812 L 23.925781 13.945312 L 23.746094 13.804688 C 23.753906 13.796875 23.757812 13.789062 23.765625 13.78125 C 23.785156 13.757812 23.804688 13.730469 23.824219 13.707031 C 23.917969 13.59375 24.027344 13.488281 24.144531 13.398438 C 24.476562 13.144531 24.886719 12.996094 25.332031 12.996094 L 37.183594 12.996094 C 37.632812 12.996094 38.042969 13.144531 38.371094 13.398438 C 38.492188 13.488281 38.597656 13.59375 38.695312 13.707031 C 38.714844 13.730469 38.734375 13.757812 38.753906 13.78125 C 38.757812 13.789062 38.765625 13.796875 38.769531 13.804688 " fill-opacity="1" fill-rule="nonzero"/></g><g clip-path="url(#e2c2525e5d)"><g clip-path="url(#6ae02ffd30)"><g clip-path="url(#f94d03c1fe)"><g clip-path="url(#2f07ab845c)"><path fill="url(#a65d70d7b3)" d="M 38.105469 20.695312 L 44.730469 14.230469 L 38.265625 7.605469 L 31.640625 14.066406 Z M 38.105469 20.695312 " fill-rule="nonzero"/></g></g></g></g><path fill="#ffffff" d="M 37.558594 12.453125 L 38.726562 12.453125 L 38.726562 15.847656 L 37.992188 15.847656 L 37.992188 13.164062 L 37.558594 13.164062 L 37.558594 12.453125 " fill-opacity="1" fill-rule="nonzero"/></svg>