<svg xmlns="http://www.w3.org/2000/svg" xmlns:xlink="http://www.w3.org/1999/xlink" width="60" zoomAndPan="magnify" viewBox="0 0 45 44.999999" height="60" preserveAspectRatio="xMidYMid meet" version="1.0"><defs><clipPath id="c9d301fe10"><path d="M 0.875 3.253906 L 44.375 3.253906 L 44.375 34 L 0.875 34 Z M 0.875 3.253906 " clip-rule="nonzero"/></clipPath><clipPath id="e8e7fba5dd"><path d="M 13 34 L 32 34 L 32 41.503906 L 13 41.503906 Z M 13 34 " clip-rule="nonzero"/></clipPath><clipPath id="55cb41fbe4"><path d="M 10.917969 24.308594 L 14.679688 24.308594 L 14.679688 25.890625 L 10.917969 25.890625 Z M 10.917969 24.308594 " clip-rule="nonzero"/></clipPath><clipPath id="edd4386d61"><path d="M 5.199219 8.644531 L 20.199219 8.644531 L 20.199219 23.679688 L 5.199219 23.679688 Z M 5.199219 8.644531 " clip-rule="nonzero"/></clipPath><clipPath id="27f0d7d410"><path d="M 23.375 18 L 39 18 L 39 23.566406 L 23.375 23.566406 Z M 23.375 18 " clip-rule="nonzero"/></clipPath><clipPath id="27d3e19fb1"><path d="M 23.375 13 L 30 13 L 30 23 L 23.375 23 Z M 23.375 13 " clip-rule="nonzero"/></clipPath><clipPath id="77d9391890"><path d="M 23.375 13 L 39 13 L 39 23 L 23.375 23 Z M 23.375 13 " clip-rule="nonzero"/></clipPath><clipPath id="aac3fece5e"><path d="M 23.375 12 L 39 12 L 39 20 L 23.375 20 Z M 23.375 12 " clip-rule="nonzero"/></clipPath><clipPath id="49386ce509"><path d="M 34.964844 10.816406 L 41.375 10.816406 L 41.375 17.488281 L 34.964844 17.488281 Z M 34.964844 10.816406 " clip-rule="nonzero"/></clipPath><clipPath id="77c5194b94"><path d="M 41.640625 14.148438 C 41.640625 15.988281 40.148438 17.484375 38.308594 17.484375 C 36.464844 17.484375 34.972656 15.988281 34.972656 14.148438 C 34.972656 12.308594 36.464844 10.816406 38.308594 10.816406 C 40.148438 10.816406 41.640625 12.308594 41.640625 14.148438 Z M 41.640625 14.148438 " clip-rule="nonzero"/></clipPath><clipPath id="bcf4e57470"><path d="M 41.640625 14.148438 C 41.640625 15.988281 40.148438 17.484375 38.308594 17.484375 C 36.464844 17.484375 34.972656 15.988281 34.972656 14.148438 C 34.972656 12.308594 36.464844 10.816406 38.308594 10.816406 C 40.148438 10.816406 41.640625 12.308594 41.640625 14.148438 " clip-rule="nonzero"/></clipPath><clipPath id="8b1cbabad5"><path d="M 38.226562 20.816406 L 44.976562 14.230469 L 38.390625 7.480469 L 31.640625 14.066406 Z M 38.226562 20.816406 " clip-rule="nonzero"/></clipPath><linearGradient x1="-0.184361" gradientTransform="matrix(-4.625464, -4.740055, 4.740055, -4.625464, 40.61816, 16.516018)" y1="0" x2="1.211324" gradientUnits="userSpaceOnUse" y2="0" id="ee4d8001ea"><stop stop-opacity="1" stop-color="rgb(85.899353%, 1.998901%, 0%)" offset="0"/><stop stop-opacity="1" stop-color="rgb(85.899353%, 1.998901%, 0%)" offset="0.125"/><stop stop-opacity="1" stop-color="rgb(85.932922%, 2.032471%, 0.0335693%)" offset="0.140625"/><stop stop-opacity="1" stop-color="rgb(86.157227%, 2.232361%, 0.233459%)" offset="0.148438"/><stop stop-opacity="1" stop-color="rgb(86.540222%, 2.410889%, 0.416565%)" offset="0.15625"/><stop stop-opacity="1" stop-color="rgb(86.915588%, 2.561951%, 0.616455%)" offset="0.171875"/><stop stop-opacity="1" stop-color="rgb(87.310791%, 2.89917%, 0.999451%)" offset="0.175781"/><stop stop-opacity="1" stop-color="rgb(87.524414%, 3.09906%, 1.199341%)" offset="0.179688"/><stop stop-opacity="1" stop-color="rgb(87.661743%, 3.106689%, 1.20697%)" offset="0.1875"/><stop stop-opacity="1" stop-color="rgb(87.989807%, 3.30658%, 1.40686%)" offset="0.203125"/><stop stop-opacity="1" stop-color="rgb(88.372803%, 3.681946%, 1.782227%)" offset="0.210938"/><stop stop-opacity="1" stop-color="rgb(88.781738%, 3.881836%, 1.982117%)" offset="0.214844"/><stop stop-opacity="1" stop-color="rgb(88.998413%, 3.898621%, 1.998901%)" offset="0.21875"/><stop stop-opacity="1" stop-color="rgb(88.998413%, 4.089355%, 2.189636%)" offset="0.226562"/><stop stop-opacity="1" stop-color="rgb(89.181519%, 4.290771%, 2.389526%)" offset="0.234375"/><stop stop-opacity="1" stop-color="rgb(89.555359%, 4.473877%, 2.528381%)" offset="0.242188"/><stop stop-opacity="1" stop-color="rgb(89.77356%, 4.673767%, 2.679443%)" offset="0.25"/><stop stop-opacity="1" stop-color="rgb(89.978027%, 4.878235%, 2.877808%)" offset="0.257812"/><stop stop-opacity="1" stop-color="rgb(90.351868%, 5.078125%, 3.077698%)" offset="0.265625"/><stop stop-opacity="1" stop-color="rgb(90.730286%, 5.255127%, 3.256226%)" offset="0.28125"/><stop stop-opacity="1" stop-color="rgb(91.096497%, 5.595398%, 3.596497%)" offset="0.296875"/><stop stop-opacity="1" stop-color="rgb(91.488647%, 5.838013%, 3.839111%)" offset="0.300781"/><stop stop-opacity="1" stop-color="rgb(91.699219%, 5.899048%, 3.898621%)" offset="0.304687"/><stop stop-opacity="1" stop-color="rgb(91.749573%, 6.047058%, 4.046631%)" offset="0.3125"/><stop stop-opacity="1" stop-color="rgb(91.938782%, 6.246948%, 4.248047%)" offset="0.320312"/><stop stop-opacity="1" stop-color="rgb(92.138672%, 6.298828%, 4.299927%)" offset="0.328125"/><stop stop-opacity="1" stop-color="rgb(92.29126%, 6.420898%, 4.421997%)" offset="0.335938"/><stop stop-opacity="1" stop-color="rgb(92.572021%, 6.620789%, 4.621887%)" offset="0.34375"/><stop stop-opacity="1" stop-color="rgb(92.829895%, 6.829834%, 4.829407%)" offset="0.351562"/><stop stop-opacity="1" stop-color="rgb(93.02063%, 7.029724%, 5.029297%)" offset="0.359375"/><stop stop-opacity="1" stop-color="rgb(93.327332%, 7.2052%, 5.204773%)" offset="0.375"/><stop stop-opacity="1" stop-color="rgb(93.605042%, 7.40509%, 5.404663%)" offset="0.382812"/><stop stop-opacity="1" stop-color="rgb(93.812561%, 7.499695%, 5.499268%)" offset="0.390625"/><stop stop-opacity="1" stop-color="rgb(94.012451%, 7.577515%, 5.604553%)" offset="0.398438"/><stop stop-opacity="1" stop-color="rgb(94.195557%, 7.727051%, 5.804443%)" offset="0.40625"/><stop stop-opacity="1" stop-color="rgb(94.439697%, 7.843018%, 5.943298%)" offset="0.414063"/><stop stop-opacity="1" stop-color="rgb(94.683838%, 7.983398%, 6.083679%)" offset="0.421875"/><stop stop-opacity="1" stop-color="rgb(94.839478%, 8.139038%, 6.239319%)" offset="0.4375"/><stop stop-opacity="1" stop-color="rgb(95.03479%, 8.334351%, 6.434631%)" offset="0.453125"/><stop stop-opacity="1" stop-color="rgb(95.26825%, 8.56781%, 6.668091%)" offset="0.460937"/><stop stop-opacity="1" stop-color="rgb(95.46814%, 8.7677%, 6.867981%)" offset="0.46875"/><stop stop-opacity="1" stop-color="rgb(95.765686%, 8.934021%, 7.034302%)" offset="0.484375"/><stop stop-opacity="1" stop-color="rgb(96.153259%, 9.121704%, 7.221985%)" offset="0.5"/><stop stop-opacity="1" stop-color="rgb(96.44165%, 9.321594%, 7.421875%)" offset="0.507812"/><stop stop-opacity="1" stop-color="rgb(96.641541%, 9.399414%, 7.499695%)" offset="0.515625"/><stop stop-opacity="1" stop-color="rgb(96.821594%, 9.516907%, 7.588196%)" offset="0.53125"/><stop stop-opacity="1" stop-color="rgb(97.009277%, 9.716797%, 7.737732%)" offset="0.546875"/><stop stop-opacity="1" stop-color="rgb(97.290039%, 9.907532%, 7.907104%)" offset="0.5625"/><stop stop-opacity="1" stop-color="rgb(97.636414%, 10.107422%, 8.106995%)" offset="0.578125"/><stop stop-opacity="1" stop-color="rgb(97.904968%, 10.302734%, 8.302307%)" offset="0.59375"/><stop stop-opacity="1" stop-color="rgb(98.100281%, 10.502625%, 8.502197%)" offset="0.609375"/><stop stop-opacity="1" stop-color="rgb(98.300171%, 10.598755%, 8.599854%)" offset="0.625"/><stop stop-opacity="1" stop-color="rgb(98.48938%, 10.688782%, 8.68988%)" offset="0.640625"/><stop stop-opacity="1" stop-color="rgb(98.68927%, 10.888672%, 8.889771%)" offset="0.65625"/><stop stop-opacity="1" stop-color="rgb(98.835754%, 11.035156%, 9.036255%)" offset="0.6875"/><stop stop-opacity="1" stop-color="rgb(98.971558%, 11.170959%, 9.172058%)" offset="0.703125"/><stop stop-opacity="1" stop-color="rgb(99.169922%, 11.334229%, 9.335327%)" offset="0.71875"/><stop stop-opacity="1" stop-color="rgb(99.438477%, 11.402893%, 9.402466%)" offset="0.75"/><stop stop-opacity="1" stop-color="rgb(99.705505%, 11.505127%, 9.5047%)" offset="0.875"/><stop stop-opacity="1" stop-color="rgb(99.900818%, 11.700439%, 9.701538%)" offset="1"/></linearGradient></defs><g clip-path="url(#c9d301fe10)"><path fill="#ffffff" d="M 42.320312 3.527344 L 2.671875 3.527344 C 1.65625 3.527344 0.875 4.308594 0.875 5.324219 L 0.875 32.097656 C 0.875 33.109375 1.65625 33.890625 2.671875 33.890625 L 42.320312 33.890625 C 43.335938 33.890625 44.117188 33.109375 44.117188 32.097656 L 44.117188 5.324219 C 44.117188 4.386719 43.335938 3.527344 42.320312 3.527344 Z M 42.320312 29.597656 L 2.671875 29.597656 L 2.671875 5.871094 L 42.320312 5.871094 Z M 42.320312 29.597656 " fill-opacity="1" fill-rule="nonzero"/></g><g clip-path="url(#e8e7fba5dd)"><path fill="#ffffff" d="M 28.972656 34.515625 L 16.015625 34.515625 L 16.015625 38.574219 L 13.597656 38.574219 L 13.597656 41.460938 L 31.394531 41.460938 L 31.394531 38.574219 L 28.972656 38.574219 Z M 28.972656 34.515625 " fill-opacity="1" fill-rule="nonzero"/></g><g clip-path="url(#55cb41fbe4)"><path fill="#ffffff" d="M 12.789062 25.933594 C 13.640625 25.933594 14.367188 25.386719 14.636719 24.628906 C 14.691406 24.472656 14.578125 24.3125 14.417969 24.3125 L 11.160156 24.3125 C 10.996094 24.3125 10.886719 24.472656 10.941406 24.628906 C 11.210938 25.386719 11.933594 25.933594 12.789062 25.933594 " fill-opacity="1" fill-rule="nonzero"/></g><g clip-path="url(#edd4386d61)"><path fill="#ffffff" d="M 20.191406 22.007812 L 19.695312 21.152344 C 19.164062 20.234375 18.886719 19.191406 18.886719 18.128906 L 18.886719 16.109375 C 18.886719 13.195312 16.84375 10.761719 14.113281 10.15625 L 14.113281 9.96875 C 14.113281 9.238281 13.519531 8.644531 12.789062 8.644531 C 12.058594 8.644531 11.464844 9.238281 11.464844 9.96875 L 11.464844 10.15625 C 8.734375 10.761719 6.691406 13.195312 6.691406 16.109375 L 6.691406 18.128906 C 6.691406 19.191406 6.410156 20.234375 5.878906 21.152344 L 5.386719 22.007812 C 4.90625 22.707031 5.410156 23.65625 6.257812 23.65625 L 19.320312 23.65625 C 20.167969 23.65625 20.667969 22.707031 20.191406 22.007812 " fill-opacity="1" fill-rule="nonzero"/></g><path fill="#ff1723" d="M 19.960938 12.046875 C 19.960938 13.636719 18.667969 14.925781 17.078125 14.925781 C 15.484375 14.925781 14.195312 13.636719 14.195312 12.046875 C 14.195312 10.453125 15.484375 9.164062 17.078125 9.164062 C 18.667969 9.164062 19.960938 10.453125 19.960938 12.046875 " fill-opacity="1" fill-rule="nonzero"/><path fill="#ffffff" d="M 17.523438 10.5 L 17.523438 13.589844 L 16.75 13.589844 L 16.75 11.933594 C 16.75 11.695312 16.746094 11.550781 16.734375 11.503906 C 16.722656 11.453125 16.691406 11.417969 16.640625 11.394531 C 16.589844 11.367188 16.472656 11.355469 16.296875 11.355469 L 16.21875 11.355469 L 16.21875 10.996094 C 16.59375 10.914062 16.875 10.75 17.066406 10.5 L 17.523438 10.5 " fill-opacity="1" fill-rule="nonzero"/><g clip-path="url(#27f0d7d410)"><path fill="#ffffff" d="M 38.753906 22.972656 C 38.398438 23.453125 37.828125 23.765625 37.183594 23.765625 L 25.335938 23.765625 C 24.691406 23.765625 24.121094 23.453125 23.765625 22.972656 L 29.175781 18.171875 L 29.222656 18.128906 L 29.421875 18.289062 L 31.261719 19.742188 L 33.097656 18.289062 L 33.300781 18.128906 L 33.34375 18.167969 L 38.753906 22.972656 " fill-opacity="1" fill-rule="nonzero"/></g><path fill="#ffffff" d="M 39.140625 14.953125 L 39.140625 21.804688 C 39.140625 22.242188 39 22.648438 38.753906 22.972656 L 33.34375 18.167969 L 33.300781 18.128906 L 38.769531 13.804688 C 38.792969 13.839844 38.816406 13.871094 38.839844 13.90625 C 39.03125 14.210938 39.140625 14.566406 39.140625 14.953125 " fill-opacity="1" fill-rule="nonzero"/><g clip-path="url(#27d3e19fb1)"><path fill="#ffffff" d="M 29.222656 18.128906 L 29.175781 18.171875 L 23.765625 22.972656 C 23.523438 22.648438 23.378906 22.242188 23.378906 21.804688 L 23.378906 14.953125 C 23.378906 14.566406 23.488281 14.210938 23.679688 13.90625 C 23.703125 13.871094 23.726562 13.835938 23.75 13.804688 L 29.222656 18.128906 " fill-opacity="1" fill-rule="nonzero"/></g><g clip-path="url(#77d9391890)"><path fill="#c1c6cc" d="M 33.890625 18.65625 C 33.855469 18.691406 33.835938 18.707031 33.835938 18.707031 C 33.835938 18.707031 37.621094 22.507812 37.5 22.617188 C 37.34375 22.761719 32.824219 19.449219 32.824219 19.449219 L 31.695312 20.273438 C 31.601562 20.339844 31.492188 20.382812 31.378906 20.398438 C 31.339844 20.402344 31.304688 20.40625 31.261719 20.402344 C 31.21875 20.40625 31.179688 20.402344 31.140625 20.398438 C 31.027344 20.382812 30.917969 20.339844 30.824219 20.273438 L 29.695312 19.449219 C 29.695312 19.449219 25.144531 22.734375 25.023438 22.621094 C 24.898438 22.507812 28.683594 18.707031 28.683594 18.707031 C 28.683594 18.707031 28.664062 18.691406 28.628906 18.65625 C 28.234375 18.261719 25.703125 15.757812 23.929688 13.945312 C 23.875 13.890625 23.820312 13.835938 23.769531 13.78125 C 23.785156 13.753906 23.804688 13.730469 23.824219 13.707031 C 23.921875 13.589844 24.03125 13.488281 24.148438 13.394531 C 26.824219 15.449219 31.261719 19.097656 31.261719 19.097656 C 31.261719 19.097656 35.695312 15.449219 38.371094 13.394531 C 38.492188 13.488281 38.597656 13.589844 38.695312 13.707031 C 38.714844 13.730469 38.734375 13.753906 38.753906 13.78125 C 38.699219 13.835938 38.644531 13.890625 38.589844 13.945312 C 36.816406 15.757812 34.289062 18.261719 33.890625 18.65625 " fill-opacity="1" fill-rule="nonzero"/></g><g clip-path="url(#aac3fece5e)"><path fill="#ffffff" d="M 38.769531 13.804688 L 38.589844 13.945312 L 33.300781 18.128906 L 33.097656 18.289062 L 31.261719 19.742188 L 29.421875 18.289062 L 29.222656 18.128906 L 23.929688 13.945312 L 23.75 13.804688 C 23.753906 13.796875 23.761719 13.789062 23.769531 13.78125 C 23.785156 13.753906 23.804688 13.730469 23.824219 13.707031 C 23.921875 13.589844 24.03125 13.488281 24.148438 13.394531 C 24.476562 13.144531 24.886719 12.992188 25.335938 12.992188 L 37.183594 12.992188 C 37.628906 12.992188 38.042969 13.144531 38.371094 13.394531 C 38.492188 13.488281 38.597656 13.589844 38.695312 13.707031 C 38.714844 13.730469 38.734375 13.753906 38.753906 13.78125 C 38.757812 13.789062 38.765625 13.796875 38.769531 13.804688 " fill-opacity="1" fill-rule="nonzero"/></g><g clip-path="url(#49386ce509)"><g clip-path="url(#77c5194b94)"><g clip-path="url(#bcf4e57470)"><g clip-path="url(#8b1cbabad5)"><path fill="url(#ee4d8001ea)" d="M 38.097656 20.683594 L 44.707031 14.230469 L 38.253906 7.613281 L 31.640625 14.066406 Z M 38.097656 20.683594 " fill-rule="nonzero"/></g></g></g></g><path fill="#ffffff" d="M 37.558594 12.453125 L 38.726562 12.453125 L 38.726562 15.847656 L 37.988281 15.847656 L 37.988281 13.164062 L 37.558594 13.164062 L 37.558594 12.453125 " fill-opacity="1" fill-rule="nonzero"/></svg>