<svg xmlns="http://www.w3.org/2000/svg" xmlns:xlink="http://www.w3.org/1999/xlink" width="40" zoomAndPan="magnify" viewBox="0 0 30 30.000001" height="40" preserveAspectRatio="xMidYMid meet" version="1.0"><defs><clipPath id="5f229f4293"><path d="M 1.207031 0.964844 L 28.789062 0.964844 L 28.789062 29 L 1.207031 29 Z M 1.207031 0.964844 " clip-rule="nonzero"/></clipPath></defs><g clip-path="url(#5f229f4293)"><path fill="#000000" d="M 14.996094 0.972656 C 14.089844 0.972656 13.195312 1.0625 12.304688 1.238281 C 11.417969 1.414062 10.554688 1.675781 9.71875 2.019531 C 8.882812 2.363281 8.085938 2.785156 7.332031 3.285156 C 6.582031 3.785156 5.882812 4.355469 5.242188 4.992188 C 4.601562 5.625 4.03125 6.320312 3.527344 7.066406 C 3.023438 7.8125 2.597656 8.601562 2.25 9.433594 C 1.902344 10.265625 1.640625 11.121094 1.464844 12.003906 C 1.285156 12.886719 1.199219 13.777344 1.195312 14.675781 C 1.953125 32.855469 28.042969 32.851562 28.796875 14.675781 C 28.796875 13.777344 28.707031 12.886719 28.53125 12.003906 C 28.351562 11.121094 28.089844 10.265625 27.742188 9.433594 C 27.394531 8.601562 26.972656 7.8125 26.46875 7.066406 C 25.964844 6.320312 25.390625 5.625 24.75 4.992188 C 24.109375 4.355469 23.414062 3.785156 22.660156 3.285156 C 21.90625 2.785156 21.113281 2.363281 20.277344 2.019531 C 19.4375 1.675781 18.578125 1.414062 17.6875 1.238281 C 16.800781 1.0625 15.902344 0.972656 14.996094 0.972656 Z M 19.339844 23.546875 C 11.921875 23.710938 5.4375 16.914062 6.019531 9.554688 C 5.90625 6.742188 8.765625 5.21875 11.234375 5.953125 C 11.417969 6.003906 11.523438 6.121094 11.554688 6.308594 L 12.453125 11.941406 C 12.429688 12.625 11.273438 12.988281 10.71875 13.164062 C 11.179688 14.503906 11.914062 15.675781 12.921875 16.675781 C 13.929688 17.675781 15.109375 18.40625 16.460938 18.863281 C 16.640625 18.289062 16.996094 17.164062 17.683594 17.136719 L 23.359375 18.03125 C 23.691406 18.058594 23.75 18.484375 23.84375 18.730469 C 24.65625 21.546875 22.109375 23.890625 19.339844 23.546875 Z M 19.339844 23.546875 " fill-opacity="1" fill-rule="nonzero"/></g></svg>