<svg xmlns="http://www.w3.org/2000/svg" xmlns:xlink="http://www.w3.org/1999/xlink" width="40" zoomAndPan="magnify" viewBox="0 0 30 30.000001" height="40" preserveAspectRatio="xMidYMid meet" version="1.0"><defs><clipPath id="954f524292"><path d="M 1.207031 0.964844 L 28.789062 0.964844 L 28.789062 29 L 1.207031 29 Z M 1.207031 0.964844 " clip-rule="nonzero"/></clipPath></defs><g clip-path="url(#954f524292)"><path fill="#01915a" d="M 14.996094 0.972656 C 14.089844 0.972656 13.195312 1.0625 12.304688 1.242188 C 11.417969 1.417969 10.554688 1.679688 9.71875 2.027344 C 8.882812 2.375 8.085938 2.800781 7.332031 3.304688 C 6.582031 3.808594 5.882812 4.378906 5.242188 5.019531 C 4.601562 5.660156 4.03125 6.355469 3.527344 7.109375 C 3.023438 7.863281 2.597656 8.65625 2.25 9.496094 C 1.902344 10.332031 1.640625 11.195312 1.464844 12.082031 C 1.285156 12.96875 1.199219 13.867188 1.195312 14.773438 C 1.953125 33.082031 28.042969 33.078125 28.796875 14.773438 C 28.796875 13.867188 28.707031 12.96875 28.53125 12.082031 C 28.351562 11.195312 28.089844 10.332031 27.742188 9.496094 C 27.394531 8.65625 26.972656 7.863281 26.46875 7.109375 C 25.964844 6.355469 25.390625 5.660156 24.75 5.019531 C 24.109375 4.378906 23.414062 3.808594 22.660156 3.304688 C 21.90625 2.800781 21.113281 2.375 20.277344 2.027344 C 19.4375 1.679688 18.578125 1.417969 17.6875 1.242188 C 16.800781 1.0625 15.902344 0.972656 14.996094 0.972656 Z M 19.339844 23.710938 C 11.921875 23.871094 5.4375 17.027344 6.019531 9.613281 C 5.90625 6.78125 8.765625 5.25 11.234375 5.988281 C 11.417969 6.039062 11.523438 6.160156 11.554688 6.347656 L 12.453125 12.019531 C 12.429688 12.710938 11.273438 13.074219 10.71875 13.25 C 11.179688 14.601562 11.914062 15.777344 12.921875 16.789062 C 13.929688 17.796875 15.109375 18.53125 16.460938 18.988281 C 16.640625 18.410156 16.996094 17.277344 17.683594 17.253906 L 23.359375 18.152344 C 23.691406 18.179688 23.75 18.605469 23.84375 18.855469 C 24.65625 21.695312 22.109375 24.054688 19.339844 23.710938 Z M 19.339844 23.710938 " fill-opacity="1" fill-rule="nonzero"/></g></svg>