<svg xmlns="http://www.w3.org/2000/svg" xmlns:xlink="http://www.w3.org/1999/xlink" width="60" zoomAndPan="magnify" viewBox="0 0 45 30.000001" height="40" preserveAspectRatio="xMidYMid meet" version="1.0"><defs><clipPath id="dc23446818"><path d="M 1.269531 0 L 44 0 L 44 19 L 1.269531 19 Z M 1.269531 0 " clip-rule="nonzero"/></clipPath><clipPath id="fcd0a79bbc"><path d="M 18 0 L 44 0 L 44 29.03125 L 18 29.03125 Z M 18 0 " clip-rule="nonzero"/></clipPath></defs><path fill="#ffffff" d="M 14.574219 28.324219 C 14.558594 28.324219 14.542969 28.320312 14.527344 28.316406 C 14.476562 28.300781 14.4375 28.253906 14.429688 28.199219 L 13.097656 18.371094 C 13.089844 18.3125 13.117188 18.257812 13.167969 18.226562 L 43.492188 0.167969 C 43.515625 0.152344 43.542969 0.144531 43.566406 0.144531 C 43.613281 0.144531 43.65625 0.167969 43.683594 0.203125 C 43.730469 0.261719 43.722656 0.34375 43.667969 0.394531 L 18.835938 24.050781 L 14.679688 28.28125 C 14.652344 28.308594 14.613281 28.324219 14.574219 28.324219 " fill-opacity="1" fill-rule="nonzero"/><path fill="#231f20" d="M 43.566406 0 C 43.515625 0 43.464844 0.015625 43.417969 0.0429688 L 13.09375 18.101562 C 12.992188 18.160156 12.9375 18.273438 12.953125 18.390625 L 14.285156 28.21875 C 14.300781 28.328125 14.375 28.421875 14.480469 28.453125 C 14.511719 28.464844 14.542969 28.46875 14.574219 28.46875 C 14.652344 28.46875 14.726562 28.4375 14.785156 28.382812 L 18.941406 24.152344 L 43.769531 0.5 C 43.878906 0.398438 43.890625 0.230469 43.800781 0.113281 C 43.742188 0.0429688 43.65625 0 43.566406 0 Z M 43.566406 0.292969 L 18.734375 23.945312 L 14.574219 28.179688 L 13.242188 18.351562 L 43.566406 0.292969 " fill-opacity="1" fill-rule="nonzero"/><path fill="#ffffff" d="M 14.496094 28.480469 L 28.035156 20.269531 L 29.984375 13.316406 L 14.574219 28.179688 " fill-opacity="1" fill-rule="nonzero"/><path fill="#231f20" d="M 14.574219 28.601562 L 28.113281 20.394531 C 28.144531 20.375 28.167969 20.34375 28.175781 20.308594 L 30.125 13.355469 C 30.144531 13.292969 30.117188 13.222656 30.058594 13.191406 C 30 13.15625 29.929688 13.167969 29.882812 13.210938 L 14.472656 28.074219 C 14.414062 28.132812 14.414062 28.222656 14.46875 28.28125 C 14.527344 28.339844 14.617188 28.339844 14.675781 28.285156 L 29.699219 13.792969 L 27.910156 20.175781 L 14.421875 28.355469 C 14.351562 28.398438 14.328125 28.484375 14.371094 28.554688 C 14.414062 28.621094 14.503906 28.644531 14.574219 28.601562 " fill-opacity="1" fill-rule="nonzero"/><g clip-path="url(#dc23446818)"><path fill="#ffffff" d="M 13.242188 18.496094 C 13.230469 18.496094 13.214844 18.492188 13.203125 18.488281 L 1.648438 15.242188 C 1.585938 15.222656 1.542969 15.171875 1.542969 15.105469 C 1.539062 15.042969 1.578125 14.988281 1.640625 14.964844 L 43.519531 0.15625 C 43.535156 0.148438 43.550781 0.144531 43.566406 0.144531 C 43.625 0.144531 43.675781 0.175781 43.699219 0.230469 C 43.730469 0.296875 43.707031 0.378906 43.644531 0.414062 L 13.316406 18.476562 C 13.296875 18.488281 13.269531 18.496094 13.242188 18.496094 " fill-opacity="1" fill-rule="nonzero"/><path fill="#231f20" d="M 43.566406 0 C 43.535156 0 43.503906 0.0078125 43.46875 0.0195312 L 1.589844 14.828125 C 1.46875 14.871094 1.390625 14.984375 1.394531 15.113281 C 1.398438 15.238281 1.484375 15.347656 1.609375 15.378906 L 13.164062 18.628906 C 13.191406 18.636719 13.214844 18.640625 13.242188 18.640625 C 13.296875 18.640625 13.347656 18.625 13.394531 18.597656 L 43.71875 0.539062 C 43.847656 0.464844 43.894531 0.300781 43.832031 0.167969 C 43.78125 0.0625 43.679688 0 43.566406 0 Z M 43.566406 0.292969 L 13.242188 18.351562 L 1.6875 15.101562 L 43.566406 0.292969 " fill-opacity="1" fill-rule="nonzero"/></g><path fill="#ffffff" d="M 34.046875 28.886719 C 34.03125 28.886719 34.019531 28.882812 34.003906 28.878906 L 18.449219 24.464844 C 18.398438 24.449219 18.359375 24.410156 18.347656 24.359375 C 18.335938 24.308594 18.351562 24.257812 18.390625 24.222656 L 43.558594 0.308594 C 43.585938 0.28125 43.625 0.269531 43.660156 0.269531 C 43.6875 0.269531 43.714844 0.277344 43.738281 0.292969 C 43.792969 0.328125 43.820312 0.398438 43.800781 0.460938 L 34.183594 28.785156 C 34.164062 28.847656 34.105469 28.886719 34.046875 28.886719 " fill-opacity="1" fill-rule="nonzero"/><g clip-path="url(#fcd0a79bbc)"><path fill="#231f20" d="M 43.660156 0.125 C 43.585938 0.125 43.511719 0.152344 43.457031 0.203125 L 18.289062 24.117188 C 18.210938 24.1875 18.183594 24.292969 18.207031 24.394531 C 18.230469 24.496094 18.308594 24.574219 18.410156 24.605469 L 33.964844 29.019531 C 33.992188 29.027344 34.019531 29.03125 34.046875 29.03125 C 34.167969 29.03125 34.28125 28.953125 34.324219 28.832031 L 43.9375 0.507812 C 43.980469 0.378906 43.929688 0.242188 43.816406 0.167969 C 43.769531 0.140625 43.714844 0.125 43.660156 0.125 Z M 43.660156 0.414062 L 34.046875 28.742188 L 18.492188 24.324219 L 43.660156 0.414062 " fill-opacity="1" fill-rule="nonzero"/></g></svg>