<svg xmlns="http://www.w3.org/2000/svg" xmlns:xlink="http://www.w3.org/1999/xlink" width="140" zoomAndPan="magnify" viewBox="0 0 104.88 44.999999" height="60" preserveAspectRatio="xMidYMid meet" version="1.0"><defs><g/><clipPath id="ec8f187195"><path d="M 78.179688 10.234375 L 102.152344 10.234375 L 102.152344 34.957031 L 78.179688 34.957031 Z M 78.179688 10.234375 " clip-rule="nonzero"/></clipPath><clipPath id="702f753bdf"><path d="M 26.421875 12.277344 L 53.390625 12.277344 L 53.390625 34.753906 L 26.421875 34.753906 Z M 26.421875 12.277344 " clip-rule="nonzero"/></clipPath><clipPath id="8e059dab63"><path d="M 55.269531 10.234375 L 76.242188 10.234375 L 76.242188 34.957031 L 55.269531 34.957031 Z M 55.269531 10.234375 " clip-rule="nonzero"/></clipPath><clipPath id="e62b4eb90e"><path d="M 2.527344 12.277344 L 25 12.277344 L 25 34.753906 L 2.527344 34.753906 Z M 2.527344 12.277344 " clip-rule="nonzero"/></clipPath></defs><g fill="#ffffff" fill-opacity="1"><g transform="translate(8.7714, 43.101327)"><g/></g></g><g fill="#ffffff" fill-opacity="1"><g transform="translate(12.612119, 43.101327)"><g/></g></g><g fill="#ffffff" fill-opacity="1"><g transform="translate(16.452837, 43.101327)"><g/></g></g><g fill="#ffffff" fill-opacity="1"><g transform="translate(20.293556, 43.101327)"><g/></g></g><g fill="#ffffff" fill-opacity="1"><g transform="translate(24.134275, 43.101327)"><g/></g></g><g fill="#ffffff" fill-opacity="1"><g transform="translate(27.974995, 43.101327)"><g/></g></g><g clip-path="url(#ec8f187195)"><path fill="#ffffff" d="M 82.804688 22.492188 C 82.804688 19.035156 85.109375 16.105469 88.269531 15.171875 L 88.269531 13.667969 C 84.300781 14.640625 81.347656 18.222656 81.347656 22.492188 C 81.347656 26.769531 84.300781 30.351562 88.269531 31.324219 L 88.269531 29.820312 C 85.109375 28.882812 82.804688 25.960938 82.804688 22.492188 Z M 89.71875 33.28125 C 89.222656 33.246094 88.738281 33.1875 88.269531 33.089844 C 83.339844 32.085938 79.628906 27.722656 79.628906 22.492188 C 79.628906 17.273438 83.339844 12.910156 88.269531 11.902344 C 88.738281 11.808594 89.222656 11.738281 89.71875 11.710938 C 89.957031 11.691406 90.199219 11.683594 90.4375 11.683594 C 90.683594 11.683594 90.925781 11.691406 91.164062 11.710938 C 91.65625 11.738281 92.144531 11.808594 92.613281 11.902344 C 96.058594 12.609375 98.914062 14.953125 100.316406 18.089844 L 98.390625 18.089844 C 97.175781 15.90625 95.09375 14.273438 92.613281 13.667969 L 92.613281 15.171875 C 94.277344 15.660156 95.699219 16.703125 96.679688 18.089844 C 97 18.539062 97.269531 19.019531 97.488281 19.535156 L 102.339844 19.535156 C 102.21875 19.039062 102.0625 18.558594 101.886719 18.089844 C 100.363281 14.144531 96.867188 11.1875 92.613281 10.425781 C 92.136719 10.347656 91.65625 10.285156 91.164062 10.257812 C 90.925781 10.242188 90.683594 10.238281 90.4375 10.238281 C 90.199219 10.238281 89.957031 10.242188 89.71875 10.257812 C 89.226562 10.285156 88.746094 10.347656 88.269531 10.425781 C 82.53125 11.453125 78.179688 16.46875 78.179688 22.492188 C 78.179688 28.523438 82.53125 33.539062 88.269531 34.566406 C 88.746094 34.648438 89.226562 34.710938 89.71875 34.738281 C 89.957031 34.75 90.199219 34.757812 90.4375 34.757812 C 90.683594 34.757812 90.925781 34.75 91.164062 34.738281 C 91.65625 34.710938 92.136719 34.648438 92.613281 34.566406 C 96.867188 33.804688 100.363281 30.847656 101.886719 26.90625 C 102.0625 26.4375 102.21875 25.953125 102.339844 25.457031 L 97.488281 25.457031 C 97.269531 25.972656 97 26.457031 96.679688 26.90625 C 95.699219 28.285156 94.277344 29.332031 92.613281 29.820312 L 92.613281 31.324219 C 95.09375 30.710938 97.175781 29.085938 98.390625 26.90625 L 100.316406 26.90625 C 98.914062 30.039062 96.058594 32.382812 92.613281 33.089844 C 92.144531 33.1875 91.65625 33.246094 91.164062 33.28125 C 90.925781 33.300781 90.683594 33.308594 90.4375 33.308594 C 90.199219 33.308594 89.957031 33.300781 89.71875 33.28125 Z M 89.71875 26.90625 C 89.199219 26.824219 88.710938 26.648438 88.269531 26.402344 C 86.894531 25.640625 85.972656 24.171875 85.972656 22.492188 C 85.972656 20.816406 86.894531 19.351562 88.269531 18.589844 C 88.710938 18.347656 89.199219 18.171875 89.71875 18.089844 C 89.957031 18.046875 90.191406 18.027344 90.4375 18.027344 C 90.691406 18.027344 90.925781 18.046875 91.164062 18.089844 C 91.683594 18.171875 92.171875 18.347656 92.613281 18.589844 C 93.988281 19.351562 94.910156 20.816406 94.910156 22.492188 C 94.910156 24.171875 93.988281 25.640625 92.613281 26.402344 C 92.171875 26.648438 91.683594 26.824219 91.164062 26.90625 C 90.925781 26.945312 90.691406 26.964844 90.4375 26.964844 C 90.191406 26.964844 89.957031 26.945312 89.71875 26.90625 Z M 88.269531 28 C 88.726562 28.183594 89.214844 28.304688 89.71875 28.375 C 89.957031 28.402344 90.191406 28.414062 90.4375 28.414062 C 90.691406 28.414062 90.925781 28.402344 91.164062 28.375 C 91.667969 28.304688 92.15625 28.183594 92.613281 28 C 94.808594 27.136719 96.359375 24.996094 96.359375 22.492188 C 96.359375 20 94.808594 17.859375 92.613281 16.988281 C 92.15625 16.808594 91.667969 16.679688 91.164062 16.621094 C 90.925781 16.59375 90.691406 16.578125 90.4375 16.578125 C 90.191406 16.578125 89.957031 16.59375 89.71875 16.621094 C 89.214844 16.679688 88.726562 16.808594 88.269531 16.988281 C 86.074219 17.859375 84.523438 20 84.523438 22.492188 C 84.523438 24.996094 86.074219 27.136719 88.269531 28 Z M 91.164062 31.554688 L 91.164062 30.101562 C 90.925781 30.128906 90.683594 30.132812 90.4375 30.132812 C 90.191406 30.132812 89.957031 30.128906 89.71875 30.101562 L 89.71875 31.554688 C 89.957031 31.574219 90.199219 31.582031 90.4375 31.582031 C 90.683594 31.582031 90.925781 31.574219 91.164062 31.554688 Z M 89.71875 13.4375 L 89.71875 14.894531 C 89.957031 14.867188 90.191406 14.859375 90.4375 14.859375 C 90.683594 14.859375 90.925781 14.867188 91.164062 14.894531 L 91.164062 13.4375 C 90.925781 13.417969 90.683594 13.40625 90.4375 13.40625 C 90.199219 13.40625 89.957031 13.417969 89.71875 13.4375 Z M 89.71875 13.4375 " fill-opacity="1" fill-rule="evenodd"/></g><g clip-path="url(#702f753bdf)"><path fill="#ffffff" d="M 39.832031 18.90625 L 39.832031 33.101562 L 42.125 31.640625 L 42.125 20.371094 L 43.03125 20.371094 L 43.03125 32.140625 L 38.925781 34.75 L 38.925781 18 L 50.730469 18 L 52.027344 15.785156 L 39.375 15.785156 L 39.375 14.878906 L 53.605469 14.878906 L 51.25 18.90625 Z M 29.667969 13.183594 L 49.402344 13.183594 L 48.40625 12.28125 L 29.152344 12.28125 L 26.421875 16.871094 L 35.609375 16.871094 L 35.609375 32.417969 L 36.511719 33.332031 L 36.511719 15.964844 L 28.011719 15.964844 Z M 29.667969 13.183594 " fill-opacity="1" fill-rule="nonzero"/></g><g clip-path="url(#8e059dab63)"><path fill="#ffffff" d="M 71.75 25.882812 L 66.863281 28.707031 L 66.714844 28.792969 L 65.890625 29.269531 L 62.71875 31.097656 L 61.132812 30.183594 L 56.855469 27.714844 L 56.855469 17.28125 L 61.132812 14.8125 L 62.71875 13.898438 L 65.890625 15.726562 L 67.171875 16.46875 L 67.457031 16.632812 L 71.75 19.113281 L 73.339844 18.199219 L 74.921875 17.28125 L 76.511719 16.367188 L 74.921875 15.453125 L 71.199219 13.300781 L 65.890625 10.234375 L 64.304688 11.148438 L 65.890625 12.066406 L 68.757812 13.722656 L 73.339844 16.367188 L 71.75 17.28125 L 67.96875 15.09375 L 65.890625 13.898438 L 64.304688 12.980469 L 62.71875 12.066406 L 61.132812 12.980469 L 60.582031 13.300781 L 59.550781 13.898438 L 55.269531 16.367188 L 55.269531 28.628906 L 59.550781 31.097656 L 60.582031 31.695312 L 61.132812 32.011719 L 62.71875 32.925781 L 65.890625 31.097656 L 67.65625 30.078125 L 71.75 27.714844 L 73.339844 28.628906 L 67.992188 31.714844 L 65.890625 32.925781 L 64.304688 33.84375 L 65.890625 34.757812 L 68.785156 33.089844 L 71.199219 31.695312 L 74.921875 29.542969 L 76.511719 28.628906 L 74.921875 27.714844 L 73.339844 26.796875 Z M 60.027344 20.117188 L 60.027344 19.113281 L 64.304688 16.644531 L 62.71875 15.726562 L 58.441406 18.199219 L 58.441406 21.703125 L 68.519531 21.703125 L 68.519531 23.289062 L 58.441406 23.289062 L 58.441406 26.796875 L 62.71875 29.269531 L 64.304688 28.351562 L 60.027344 25.882812 L 60.027344 24.875 L 70.109375 24.875 L 70.109375 20.117188 Z M 60.027344 20.117188 " fill-opacity="1" fill-rule="evenodd"/></g><g clip-path="url(#e62b4eb90e)"><path fill="#ffffff" d="M 5.996094 12.292969 L 13.609375 12.292969 C 14.355469 12.292969 15.085938 12.367188 15.792969 12.507812 C 16.519531 12.652344 17.222656 12.871094 17.894531 13.148438 C 18.578125 13.433594 19.226562 13.78125 19.832031 14.191406 C 20.449219 14.601562 21.019531 15.070312 21.535156 15.589844 C 22.054688 16.105469 22.523438 16.679688 22.9375 17.296875 C 23.34375 17.902344 23.695312 18.550781 23.976562 19.234375 C 24.257812 19.90625 24.472656 20.609375 24.617188 21.332031 C 24.757812 22.039062 24.832031 22.773438 24.832031 23.515625 C 24.832031 24.261719 24.757812 24.992188 24.617188 25.699219 C 24.472656 26.421875 24.253906 27.125 23.976562 27.796875 C 23.695312 28.480469 23.34375 29.128906 22.9375 29.738281 C 22.523438 30.351562 22.054688 30.921875 21.535156 31.441406 C 21.019531 31.960938 20.445312 32.433594 19.832031 32.839844 C 19.222656 33.25 18.574219 33.597656 17.890625 33.882812 C 17.222656 34.164062 16.519531 34.378906 15.792969 34.523438 C 15.085938 34.664062 14.355469 34.738281 13.609375 34.738281 L 5.996094 34.738281 C 5.929688 34.734375 5.867188 34.738281 5.800781 34.734375 C 5.632812 34.71875 5.464844 34.675781 5.3125 34.597656 C 5.160156 34.523438 5.019531 34.417969 4.898438 34.28125 C 4.78125 34.148438 4.664062 34.003906 4.546875 33.859375 C 4.4375 33.71875 4.328125 33.574219 4.226562 33.429688 C 4.121094 33.28125 4.019531 33.128906 3.925781 32.976562 C 3.832031 32.828125 3.742188 32.671875 3.65625 32.515625 L 3.652344 32.507812 C 3.566406 32.351562 3.488281 32.195312 3.414062 32.046875 C 3.34375 31.890625 3.269531 31.726562 3.199219 31.554688 L 3.195312 31.546875 C 3.125 31.375 3.0625 31.210938 3.007812 31.054688 L 3.003906 31.039062 C 2.949219 30.875 2.898438 30.710938 2.851562 30.554688 C 2.792969 30.335938 2.738281 30.117188 2.695312 29.902344 L 2.695312 29.886719 C 2.652344 29.667969 2.617188 29.457031 2.589844 29.246094 C 2.566406 29.035156 2.546875 28.816406 2.535156 28.59375 C 2.527344 28.371094 2.527344 28.148438 2.53125 27.925781 C 2.542969 27.699219 2.554688 27.476562 2.578125 27.261719 C 2.601562 27.042969 2.636719 26.828125 2.679688 26.617188 C 2.722656 26.40625 2.769531 26.199219 2.828125 25.988281 C 2.890625 25.78125 2.957031 25.574219 3.035156 25.367188 C 3.113281 25.164062 3.199219 24.960938 3.292969 24.761719 C 3.390625 24.5625 3.492188 24.371094 3.601562 24.183594 C 3.714844 23.996094 3.832031 23.8125 3.957031 23.636719 C 4.082031 23.460938 4.21875 23.289062 4.363281 23.121094 L 4.492188 22.972656 C 5.027344 22.308594 6.296875 21.5 6.296875 21.5 L 6.386719 21.445312 C 6.589844 21.328125 6.800781 21.21875 7.011719 21.117188 C 7.226562 21.015625 7.445312 20.921875 7.667969 20.839844 C 7.894531 20.753906 8.125 20.675781 8.355469 20.605469 C 8.59375 20.535156 8.832031 20.476562 9.066406 20.425781 C 9.257812 20.382812 9.457031 20.347656 9.667969 20.3125 L 9.683594 20.3125 C 9.890625 20.277344 10.109375 20.25 10.332031 20.226562 L 10.757812 20.191406 L 10.757812 18.804688 C 10.757812 18.613281 10.796875 18.425781 10.867188 18.257812 C 10.941406 18.085938 11.042969 17.933594 11.171875 17.800781 L 11.183594 17.789062 C 11.316406 17.65625 11.476562 17.546875 11.652344 17.476562 C 11.820312 17.402344 12.007812 17.367188 12.199219 17.367188 C 12.296875 17.367188 12.394531 17.375 12.488281 17.394531 C 12.582031 17.414062 12.667969 17.441406 12.753906 17.476562 L 12.789062 17.496094 C 12.863281 17.53125 12.9375 17.570312 13.007812 17.621094 C 13.082031 17.671875 13.152344 17.730469 13.21875 17.792969 L 18.871094 22.78125 C 19.015625 22.910156 19.132812 23.0625 19.210938 23.226562 C 19.292969 23.398438 19.339844 23.582031 19.351562 23.769531 C 19.363281 23.953125 19.339844 24.144531 19.277344 24.324219 C 19.214844 24.496094 19.121094 24.660156 18.996094 24.804688 L 18.925781 24.878906 L 14.582031 28.710938 C 14.570312 28.722656 14.554688 28.734375 14.535156 28.746094 L 13.21875 29.910156 C 13.15625 29.972656 13.085938 30.03125 13.007812 30.082031 C 12.941406 30.128906 12.863281 30.171875 12.789062 30.207031 L 12.765625 30.21875 C 12.679688 30.253906 12.585938 30.285156 12.488281 30.304688 C 12.394531 30.324219 12.296875 30.335938 12.199219 30.335938 C 12.007812 30.335938 11.820312 30.296875 11.652344 30.226562 C 11.476562 30.152344 11.316406 30.046875 11.183594 29.914062 L 11.179688 29.910156 C 11.046875 29.777344 10.941406 29.617188 10.867188 29.441406 C 10.796875 29.273438 10.757812 29.089844 10.757812 28.894531 L 10.757812 27.296875 L 10.53125 27.320312 C 10.398438 27.335938 10.265625 27.355469 10.132812 27.382812 C 9.921875 27.421875 9.722656 27.476562 9.53125 27.542969 C 9.347656 27.605469 9.171875 27.683594 9.003906 27.777344 C 8.644531 27.976562 8.351562 28.230469 8.113281 28.527344 C 7.847656 28.855469 7.648438 29.238281 7.503906 29.648438 C 7.15625 30.644531 7.097656 31.878906 7.191406 32.929688 L 13.613281 32.929688 C 14.238281 32.929688 14.855469 32.867188 15.445312 32.75 C 16.058594 32.628906 16.644531 32.449219 17.203125 32.214844 C 17.773438 31.976562 18.320312 31.6875 18.828125 31.34375 C 19.34375 31 19.824219 30.601562 20.261719 30.160156 C 20.703125 29.722656 21.101562 29.242188 21.445312 28.730469 C 21.785156 28.21875 22.078125 27.675781 22.316406 27.101562 C 22.550781 26.542969 22.730469 25.957031 22.851562 25.347656 C 22.96875 24.753906 23.03125 24.140625 23.03125 23.511719 C 23.03125 22.882812 22.96875 22.269531 22.851562 21.679688 C 22.730469 21.066406 22.546875 20.480469 22.316406 19.921875 C 22.078125 19.347656 21.785156 18.804688 21.445312 18.296875 C 21.101562 17.785156 20.707031 17.308594 20.273438 16.871094 L 20.261719 16.863281 C 19.824219 16.421875 19.34375 16.027344 18.828125 15.683594 C 18.320312 15.339844 17.773438 15.046875 17.203125 14.808594 C 16.644531 14.578125 16.054688 14.398438 15.445312 14.273438 C 14.855469 14.15625 14.242188 14.09375 13.613281 14.09375 L 6.296875 14.09375 L 6.296875 17.632812 C 6.296875 18.128906 5.894531 18.535156 5.394531 18.535156 C 4.894531 18.535156 4.492188 18.132812 4.492188 17.632812 L 4.492188 13.796875 C 4.492188 13.59375 4.535156 13.398438 4.609375 13.222656 C 4.683594 13.039062 4.796875 12.871094 4.933594 12.734375 C 5.070312 12.597656 5.238281 12.484375 5.421875 12.40625 L 5.429688 12.40625 C 5.605469 12.332031 5.796875 12.292969 5.996094 12.292969 M 13.222656 27.511719 C 13.234375 27.5 13.25 27.488281 13.265625 27.480469 L 17.375 23.855469 L 12.5625 19.609375 L 12.5625 21.789062 C 12.5625 21.886719 12.480469 21.96875 12.378906 21.96875 L 11.660156 21.964844 C 11.46875 21.964844 11.273438 21.96875 11.074219 21.976562 C 10.886719 21.984375 10.699219 22 10.507812 22.015625 C 10.332031 22.035156 10.152344 22.058594 9.976562 22.085938 C 9.808594 22.113281 9.628906 22.148438 9.445312 22.183594 C 9.246094 22.230469 9.046875 22.28125 8.859375 22.335938 C 8.671875 22.390625 8.488281 22.449219 8.304688 22.519531 C 8.128906 22.585938 7.953125 22.660156 7.78125 22.742188 C 7.617188 22.820312 7.457031 22.90625 7.296875 22.996094 C 7.238281 23.03125 7.148438 23.09375 7.09375 23.121094 C 6.988281 23.1875 6.875 23.261719 6.761719 23.34375 C 6.65625 23.421875 6.550781 23.503906 6.445312 23.589844 C 6.265625 23.738281 6.101562 23.894531 5.933594 24.0625 L 5.726562 24.292969 C 5.621094 24.417969 5.519531 24.546875 5.425781 24.679688 C 5.328125 24.8125 5.238281 24.953125 5.148438 25.101562 C 5.0625 25.246094 4.984375 25.394531 4.914062 25.542969 C 4.84375 25.691406 4.777344 25.84375 4.714844 26 C 4.660156 26.152344 4.609375 26.308594 4.5625 26.46875 C 4.515625 26.628906 4.476562 26.792969 4.445312 26.960938 C 4.410156 27.132812 4.382812 27.300781 4.367188 27.46875 C 4.34375 27.640625 4.332031 27.8125 4.328125 27.976562 C 4.320312 28.144531 4.324219 28.320312 4.332031 28.492188 C 4.339844 28.664062 4.355469 28.839844 4.378906 29.019531 L 4.378906 29.039062 C 4.402344 29.210938 4.429688 29.382812 4.464844 29.550781 C 4.5 29.726562 4.539062 29.898438 4.585938 30.066406 C 4.625 30.199219 4.667969 30.335938 4.714844 30.472656 C 4.761719 30.609375 4.8125 30.742188 4.863281 30.871094 C 4.914062 31.003906 4.972656 31.132812 5.035156 31.261719 C 5.09375 31.386719 5.160156 31.519531 5.234375 31.652344 L 5.355469 31.863281 C 5.324219 31.039062 5.535156 29.832031 5.808594 29.058594 C 6.023438 28.449219 6.324219 27.878906 6.734375 27.375 C 7.105469 26.917969 7.570312 26.519531 8.140625 26.207031 C 8.390625 26.066406 8.652344 25.953125 8.921875 25.855469 C 9.203125 25.757812 9.496094 25.679688 9.792969 25.621094 C 10.085938 25.5625 10.390625 25.523438 10.703125 25.503906 L 10.707031 25.503906 C 11.027344 25.480469 11.359375 25.480469 11.695312 25.492188 L 12.382812 25.519531 C 12.480469 25.519531 12.5625 25.601562 12.5625 25.699219 L 12.5625 28.101562 Z M 13.222656 27.511719 " fill-opacity="1" fill-rule="evenodd"/></g></svg>