<svg width="40" height="40" viewBox="0 0 40 40" fill="none" xmlns="http://www.w3.org/2000/svg">
<g clip-path="url(#clip0_28_51)">
<path d="M24.55 12.8333C24.3968 12.6768 24.2759 12.4917 24.1942 12.2885C24.1126 12.0853 24.0718 11.868 24.0741 11.649C24.0764 11.43 24.1218 11.2136 24.2078 11.0122C24.2937 10.8107 24.4185 10.6282 24.575 10.475C24.7315 10.3218 24.9166 10.2009 25.1198 10.1192C25.323 10.0376 25.5404 9.99675 25.7593 9.99907C25.9783 10.0014 26.1947 10.0468 26.3962 10.1328C26.5976 10.2187 26.7801 10.3435 26.9333 10.5L30 13.635V1.66667C30 1.22464 30.1756 0.800716 30.4882 0.488155C30.8007 0.175595 31.2246 0 31.6667 0C32.1087 0 32.5326 0.175595 32.8452 0.488155C33.1577 0.800716 33.3333 1.22464 33.3333 1.66667V13.635L36.4 10.5C36.7094 10.184 37.1317 10.0038 37.574 9.99907C38.0163 9.99438 38.4423 10.1656 38.7583 10.475C39.0744 10.7844 39.2546 11.2067 39.2593 11.649C39.2639 12.0913 39.0928 12.5173 38.7833 12.8333L34.5917 17.1167C33.8221 17.89 32.7777 18.3274 31.6867 18.3333C31.6763 18.3359 31.6654 18.3359 31.655 18.3333C31.1162 18.3335 30.5827 18.2273 30.085 18.0208C29.5874 17.8143 29.1354 17.5116 28.755 17.13L24.55 12.8333ZM38.3333 18.3333C37.8913 18.3333 37.4674 18.5089 37.1548 18.8215C36.8423 19.134 36.6667 19.558 36.6667 20V31.6667C36.6667 32.9927 36.1399 34.2645 35.2022 35.2022C34.2645 36.1399 32.9927 36.6667 31.6667 36.6667H8.33333C7.00725 36.6667 5.73548 36.1399 4.7978 35.2022C3.86012 34.2645 3.33333 32.9927 3.33333 31.6667V15.1183L14.1083 25.8933C15.6735 27.4426 17.7859 28.3131 19.9882 28.3162C22.1905 28.3193 24.3054 27.4549 25.875 25.91L29.0117 22.8617C29.1712 22.7097 29.299 22.5277 29.3877 22.326C29.4764 22.1244 29.5242 21.9072 29.5284 21.6869C29.5327 21.4667 29.4932 21.2478 29.4123 21.0429C29.3314 20.838 29.2107 20.6512 29.0571 20.4932C28.9036 20.3353 28.7202 20.2093 28.5177 20.1226C28.3152 20.036 28.0975 19.9903 27.8772 19.9883C27.6569 19.9863 27.4385 20.028 27.2344 20.111C27.0303 20.1939 26.8447 20.3165 26.6883 20.4717L23.535 23.5367C22.5822 24.4449 21.3163 24.9516 20 24.9516C18.6837 24.9516 17.4178 24.4449 16.465 23.5367L3.935 11C4.35633 10.1976 4.98852 9.52522 5.76353 9.05535C6.53854 8.58547 7.42701 8.33584 8.33333 8.33333H20C20.442 8.33333 20.8659 8.15774 21.1785 7.84518C21.4911 7.53262 21.6667 7.10869 21.6667 6.66667C21.6667 6.22464 21.4911 5.80072 21.1785 5.48816C20.8659 5.17559 20.442 5 20 5H8.33333C6.12401 5.00265 4.00593 5.88147 2.4437 7.4437C0.88147 9.00593 0.00264643 11.124 0 13.3333L0 31.6667C0.00264643 33.876 0.88147 35.9941 2.4437 37.5563C4.00593 39.1185 6.12401 39.9974 8.33333 40H31.6667C33.876 39.9974 35.9941 39.1185 37.5563 37.5563C39.1185 35.9941 39.9974 33.876 40 31.6667V20C40 19.558 39.8244 19.134 39.5118 18.8215C39.1993 18.5089 38.7754 18.3333 38.3333 18.3333Z" fill="white"/>
</g>
<defs>
<clipPath id="clip0_28_51">
<rect width="40" height="40" fill="white"/>
</clipPath>
</defs>
</svg>
