<svg width="40" height="40" viewBox="0 0 40 40" fill="none" xmlns="http://www.w3.org/2000/svg">
<g clip-path="url(#clip0_26_61)">
<path d="M35 1.66681H5C3.67392 1.66681 2.40215 2.19359 1.46447 3.13127C0.526784 4.06896 0 5.34073 0 6.66681L0 38.3335H40V6.66681C40 5.34073 39.4732 4.06896 38.5355 3.13127C37.5979 2.19359 36.3261 1.66681 35 1.66681V1.66681ZM5 5.00014H35C35.442 5.00014 35.866 5.17574 36.1785 5.4883C36.4911 5.80086 36.6667 6.22478 36.6667 6.66681V11.6668H3.33333V6.66681C3.33333 6.22478 3.50893 5.80086 3.82149 5.4883C4.13405 5.17574 4.55797 5.00014 5 5.00014V5.00014ZM3.33333 35.0001V15.0001H36.6667V35.0001H3.33333ZM8.33333 20.0001H31.6667V23.3335H8.33333V20.0001ZM8.33333 26.6668H25V30.0001H8.33333V26.6668ZM5 8.33348C5 8.00384 5.09775 7.68161 5.28088 7.40752C5.46402 7.13344 5.72432 6.91982 6.02886 6.79368C6.3334 6.66753 6.66852 6.63452 6.99182 6.69883C7.31512 6.76314 7.61209 6.92188 7.84518 7.15496C8.07826 7.38805 8.237 7.68502 8.30131 8.00832C8.36562 8.33163 8.33261 8.66674 8.20647 8.97128C8.08032 9.27582 7.8667 9.53612 7.59262 9.71926C7.31853 9.90239 6.9963 10.0001 6.66667 10.0001C6.22464 10.0001 5.80072 9.82455 5.48816 9.51199C5.17559 9.19943 5 8.7755 5 8.33348ZM10 8.33348C10 8.00384 10.0977 7.68161 10.2809 7.40752C10.464 7.13344 10.7243 6.91982 11.0289 6.79368C11.3334 6.66753 11.6685 6.63452 11.9918 6.69883C12.3151 6.76314 12.6121 6.92188 12.8452 7.15496C13.0783 7.38805 13.237 7.68502 13.3013 8.00832C13.3656 8.33163 13.3326 8.66674 13.2065 8.97128C13.0803 9.27582 12.8667 9.53612 12.5926 9.71926C12.3185 9.90239 11.9963 10.0001 11.6667 10.0001C11.2246 10.0001 10.8007 9.82455 10.4882 9.51199C10.1756 9.19943 10 8.7755 10 8.33348ZM15 8.33348C15 8.00384 15.0977 7.68161 15.2809 7.40752C15.464 7.13344 15.7243 6.91982 16.0289 6.79368C16.3334 6.66753 16.6685 6.63452 16.9918 6.69883C17.3151 6.76314 17.6121 6.92188 17.8452 7.15496C18.0783 7.38805 18.237 7.68502 18.3013 8.00832C18.3656 8.33163 18.3326 8.66674 18.2065 8.97128C18.0803 9.27582 17.8667 9.53612 17.5926 9.71926C17.3185 9.90239 16.9963 10.0001 16.6667 10.0001C16.2246 10.0001 15.8007 9.82455 15.4882 9.51199C15.1756 9.19943 15 8.7755 15 8.33348Z" fill="white"/>
</g>
<defs>
<clipPath id="clip0_26_61">
<rect width="40" height="40" fill="white"/>
</clipPath>
</defs>
</svg>
