<svg width="40" height="40" viewBox="0 0 40 40" fill="none" xmlns="http://www.w3.org/2000/svg">
<g clip-path="url(#clip0_28_7)">
<path d="M11.6667 20H20V23.3333H11.6667V20ZM28.3333 13.3333H11.6667V16.6667H28.3333V13.3333ZM28.3333 6.66667H11.6667V10H28.3333V6.66667ZM33.3333 32.4067V40L30 36.6667L26.6667 40V32.4067C25.3956 31.6764 24.4017 30.5462 23.8397 29.1923C23.2777 27.8383 23.1793 26.3365 23.5597 24.9208C23.94 23.505 24.7779 22.2548 25.9427 21.3648C27.1076 20.4748 28.5341 19.9949 30 20C30.5634 20.007 31.1236 20.0866 31.6667 20.2367V5C31.6667 4.55797 31.4911 4.13405 31.1785 3.82149C30.866 3.50893 30.442 3.33333 30 3.33333H10C9.55797 3.33333 9.13405 3.50893 8.82149 3.82149C8.50893 4.13405 8.33333 4.55797 8.33333 5V33.3333H23.3333V36.6667H5V5C5 3.67392 5.52678 2.40215 6.46447 1.46447C7.40215 0.526784 8.67392 0 10 0L30 0C31.3261 0 32.5979 0.526784 33.5355 1.46447C34.4732 2.40215 35 3.67392 35 5V22.3033C35.6529 23.0365 36.1335 23.9064 36.4067 24.8493C36.6799 25.7922 36.7388 26.7843 36.579 27.7529C36.4192 28.7216 36.0448 29.6422 35.4832 30.4474C34.9216 31.2526 34.1871 31.922 33.3333 32.4067V32.4067ZM33.3333 26.6667C33.3333 26.0074 33.1378 25.3629 32.7716 24.8148C32.4053 24.2666 31.8847 23.8394 31.2756 23.5871C30.6665 23.3348 29.9963 23.2688 29.3497 23.3974C28.7031 23.526 28.1092 23.8435 27.643 24.3096C27.1768 24.7758 26.8593 25.3698 26.7307 26.0164C26.6021 26.663 26.6681 27.3332 26.9204 27.9423C27.1727 28.5514 27.5999 29.072 28.1481 29.4382C28.6963 29.8045 29.3407 30 30 30C30.8841 30 31.7319 29.6488 32.357 29.0237C32.9821 28.3986 33.3333 27.5507 33.3333 26.6667Z" fill="black"/>
</g>
<defs>
<clipPath id="clip0_28_7">
<rect width="40" height="40" fill="white"/>
</clipPath>
</defs>
</svg>
