<svg width="40" height="40" viewBox="0 0 40 40" fill="none" xmlns="http://www.w3.org/2000/svg">
<g clip-path="url(#clip0_28_42)">
<path d="M26.6669 26.6666C26.6669 27.1087 26.4913 27.5326 26.1787 27.8452C25.8662 28.1577 25.4423 28.3333 25.0002 28.3333H21.6669V31.6666C21.6669 32.1087 21.4913 32.5326 21.1787 32.8452C20.8662 33.1577 20.4423 33.3333 20.0002 33.3333C19.5582 33.3333 19.1343 33.1577 18.8217 32.8452C18.5092 32.5326 18.3336 32.1087 18.3336 31.6666V28.3333H15.0002C14.5582 28.3333 14.1343 28.1577 13.8217 27.8452C13.5092 27.5326 13.3336 27.1087 13.3336 26.6666C13.3336 26.2246 13.5092 25.8007 13.8217 25.4881C14.1343 25.1756 14.5582 25 15.0002 25H18.3336V21.6666C18.3336 21.2246 18.5092 20.8007 18.8217 20.4881C19.1343 20.1756 19.5582 20 20.0002 20C20.4423 20 20.8662 20.1756 21.1787 20.4881C21.4913 20.8007 21.6669 21.2246 21.6669 21.6666V25H25.0002C25.4423 25 25.8662 25.1756 26.1787 25.4881C26.4913 25.8007 26.6669 26.2246 26.6669 26.6666ZM36.6669 17.475V31.6666C36.6642 33.876 35.7854 35.994 34.2232 37.5563C32.661 39.1185 30.5429 39.9973 28.3336 40H11.6669C9.45757 39.9973 7.33949 39.1185 5.77726 37.5563C4.21503 35.994 3.3362 33.876 3.33356 31.6666V8.33331C3.3362 6.12399 4.21503 4.00591 5.77726 2.44368C7.33949 0.881447 9.45757 0.00262381 11.6669 -2.26207e-05H19.1919C20.7246 -0.0039675 22.2429 0.295957 23.6589 0.882409C25.075 1.46886 26.3608 2.33021 27.4419 3.41664L33.2486 9.22664C34.3356 10.307 35.1975 11.5924 35.7843 13.0083C36.371 14.4241 36.671 15.9423 36.6669 17.475V17.475ZM25.0852 5.77331C24.5607 5.26525 23.9718 4.82818 23.3336 4.47331V11.6666C23.3336 12.1087 23.5092 12.5326 23.8217 12.8452C24.1343 13.1577 24.5582 13.3333 25.0002 13.3333H32.1936C31.8385 12.6953 31.4008 12.1069 30.8919 11.5833L25.0852 5.77331ZM33.3336 17.475C33.3336 17.2 33.2802 16.9366 33.2552 16.6666H25.0002C23.6741 16.6666 22.4024 16.1399 21.4647 15.2022C20.527 14.2645 20.0002 12.9927 20.0002 11.6666V3.41164C19.7302 3.38664 19.4652 3.33331 19.1919 3.33331H11.6669C10.3408 3.33331 9.06904 3.8601 8.13136 4.79778C7.19367 5.73546 6.66689 7.00723 6.66689 8.33331V31.6666C6.66689 32.9927 7.19367 34.2645 8.13136 35.2022C9.06904 36.1399 10.3408 36.6666 11.6669 36.6666H28.3336C29.6596 36.6666 30.9314 36.1399 31.8691 35.2022C32.8068 34.2645 33.3336 32.9927 33.3336 31.6666V17.475Z" fill="white"/>
</g>
<defs>
<clipPath id="clip0_28_42">
<rect width="40" height="40" fill="white"/>
</clipPath>
</defs>
</svg>
